Nobile.ufo
<glyph name="dollar" format="1">
  <advance width="1019"/>
  <unicode hex="0024"/>
  <outline>
    <contour>
      <point x="576" y="539" type="curve"/>
      <point x="576" y="134" type="line"/>
      <point x="692" y="137"/>
      <point x="797" y="204"/>
      <point x="797" y="329" type="curve" smooth="yes"/>
      <point x="797" y="464"/>
      <point x="679" y="498"/>
    </contour>
    <contour>
      <point x="473" y="745" type="curve"/>
      <point x="473" y="1100" type="line"/>
      <point x="348" y="1100"/>
      <point x="223" y="1078"/>
      <point x="223" y="924" type="curve" smooth="yes"/>
      <point x="223" y="805"/>
      <point x="380" y="759"/>
    </contour>
    <contour>
      <point x="124" y="63" type="curve"/>
      <point x="173" y="207" type="line"/>
      <point x="274" y="169"/>
      <point x="365" y="142"/>
      <point x="473" y="129" type="curve"/>
      <point x="473" y="572" type="line"/>
      <point x="259" y="618"/>
      <point x="60" y="664"/>
      <point x="60" y="929" type="curve" smooth="yes"/>
      <point x="60" y="1156"/>
      <point x="285" y="1234"/>
      <point x="473" y="1240" type="curve"/>
      <point x="473" y="1390" type="line"/>
      <point x="576" y="1390" type="line"/>
      <point x="576" y="1236" type="line"/>
      <point x="664" y="1234"/>
      <point x="794" y="1217"/>
      <point x="878" y="1189" type="curve" smooth="yes"/>
      <point x="882" y="1187"/>
      <point x="907" y="1179"/>
      <point x="907" y="1172" type="curve" smooth="yes"/>
      <point x="907" y="1171" type="line"/>
      <point x="855" y="1040" type="line"/>
      <point x="767" y="1077"/>
      <point x="670" y="1092"/>
      <point x="576" y="1098" type="curve"/>
      <point x="576" y="709" type="line"/>
      <point x="763" y="646"/>
      <point x="962" y="568"/>
      <point x="962" y="340" type="curve" smooth="yes"/>
      <point x="962" y="101"/>
      <point x="793" y="0"/>
      <point x="576" y="-18" type="curve"/>
      <point x="576" y="-178" type="line"/>
      <point x="473" y="-178" type="line"/>
      <point x="473" y="-20" type="line"/>
      <point x="347" y="-11"/>
      <point x="244" y="23"/>
    </contour>
  </outline>
</glyph>
<glyph name="percent" format="1">
  <advance width="1671"/>
  <unicode hex="0025"/>
  <outline>
    <contour>
      <point x="425" y="37" type="line"/>
      <point x="1107" y="1497" type="line"/>
      <point x="1236" y="1430" type="line"/>
      <point x="555" y="-22" type="line"/>
    </contour>
    <contour>
      <point x="59" y="1071" type="curve" smooth="yes"/>
      <point x="59" y="1288"/>
      <point x="129" y="1495"/>
      <point x="380" y="1495" type="curve" smooth="yes"/>
      <point x="631" y="1495"/>
      <point x="701" y="1288"/>
      <point x="701" y="1071" type="curve" smooth="yes"/>
      <point x="701" y="870"/>
      <point x="607" y="678"/>
      <point x="380" y="678" type="curve" smooth="yes"/>
      <point x="154" y="678"/>
      <point x="59" y="871"/>
    </contour>
    <contour>
      <point x="192" y="1092" type="curve" smooth="yes"/>
      <point x="192" y="962"/>
      <point x="214" y="788"/>
      <point x="380" y="788" type="curve" smooth="yes"/>
      <point x="546" y="788"/>
      <point x="568" y="962"/>
      <point x="568" y="1092" type="curve" smooth="yes"/>
      <point x="568" y="1219"/>
      <point x="542" y="1391"/>
      <point x="380" y="1391" type="curve" smooth="yes"/>
      <point x="218" y="1391"/>
      <point x="192" y="1219"/>
    </contour>
    <contour>
      <point x="970" y="372" type="curve" smooth="yes"/>
      <point x="970" y="589"/>
      <point x="1040" y="796"/>
      <point x="1291" y="796" type="curve" smooth="yes"/>
      <point x="1542" y="796"/>
      <point x="1612" y="589"/>
      <point x="1612" y="372" type="curve" smooth="yes"/>
      <point x="1612" y="171"/>
      <point x="1518" y="-21"/>
      <point x="1291" y="-21" type="curve" smooth="yes"/>
      <point x="1065" y="-21"/>
      <point x="970" y="172"/>
    </contour>
    <contour>
      <point x="1103" y="393" type="curve" smooth="yes"/>
      <point x="1103" y="263"/>
      <point x="1125" y="89"/>
      <point x="1291" y="89" type="curve" smooth="yes"/>
      <point x="1457" y="89"/>
      <point x="1479" y="263"/>
      <point x="1479" y="393" type="curve" smooth="yes"/>
      <point x="1479" y="520"/>
      <point x="1453" y="692"/>
      <point x="1291" y="692" type="curve" smooth="yes"/>
      <point x="1129" y="692"/>
      <point x="1103" y="520"/>
    </contour>
  </outline>
</glyph>
<glyph name="ampersand" format="1">
  <advance width="1536"/>
  <unicode hex="0026"/>
  <outline>
    <contour>
      <point x="836" y="1119" type="curve" smooth="yes"/>
      <point x="836" y="1258"/>
      <point x="718" y="1310"/>
      <point x="595" y="1310" type="curve" smooth="yes"/>
      <point x="465" y="1310"/>
      <point x="362" y="1269"/>
      <point x="362" y="1121" type="curve" smooth="yes"/>
      <point x="362" y="1026"/>
      <point x="467" y="925"/>
      <point x="547" y="883" type="curve"/>
      <point x="679" y="922"/>
      <point x="836" y="953"/>
    </contour>
    <contour>
      <point x="246" y="418" type="curve" smooth="yes"/>
      <point x="246" y="161"/>
      <point x="398" y="100"/>
      <point x="631" y="100" type="curve" smooth="yes"/>
      <point x="777" y="100"/>
      <point x="992" y="118"/>
      <point x="1080" y="256" type="curve"/>
      <point x="492" y="726" type="line"/>
      <point x="328" y="691"/>
      <point x="246" y="585"/>
    </contour>
    <contour>
      <point x="631" y="-39" type="curve" smooth="yes"/>
      <point x="353" y="-39"/>
      <point x="64" y="75"/>
      <point x="64" y="396" type="curve" smooth="yes"/>
      <point x="64" y="621"/>
      <point x="184" y="761"/>
      <point x="398" y="822" type="curve"/>
      <point x="307" y="879"/>
      <point x="196" y="1001"/>
      <point x="196" y="1113" type="curve" smooth="yes"/>
      <point x="196" y="1345"/>
      <point x="386" y="1445"/>
      <point x="595" y="1445" type="curve" smooth="yes"/>
      <point x="803" y="1445"/>
      <point x="996" y="1346"/>
      <point x="996" y="1115" type="curve" smooth="yes"/>
      <point x="996" y="899"/>
      <point x="813" y="836"/>
      <point x="637" y="781" type="curve"/>
      <point x="1132" y="391" type="line"/>
      <point x="1141" y="526"/>
      <point x="1146" y="661"/>
      <point x="1146" y="796" type="curve"/>
      <point x="1310" y="796" type="line"/>
      <point x="1310" y="624"/>
      <point x="1296" y="446"/>
      <point x="1263" y="277" type="curve"/>
      <point x="1489" y="95" type="line"/>
      <point x="1403" y="-7" type="line"/>
      <point x="1192" y="170" type="line"/>
      <point x="1105" y="6"/>
      <point x="797" y="-39"/>
    </contour>
  </outline>
</glyph>
<glyph name="asterisk" format="1">
  <advance width="1017"/>
  <unicode hex="002A"/>
  <outline>
    <contour>
      <point x="508" y="1292" type="line"/>
      <point x="647" y="1567" type="line"/>
      <point x="750" y="1509" type="line"/>
      <point x="592" y="1237" type="line"/>
      <point x="903" y="1237" type="line"/>
      <point x="903" y="1145" type="line"/>
      <point x="594" y="1145" type="line"/>
      <point x="764" y="872" type="line"/>
      <point x="662" y="815" type="line"/>
      <point x="508" y="1090" type="line"/>
      <point x="354" y="815" type="line"/>
      <point x="252" y="872" type="line"/>
      <point x="422" y="1145" type="line"/>
      <point x="113" y="1145" type="line"/>
      <point x="113" y="1237" type="line"/>
      <point x="424" y="1237" type="line"/>
      <point x="266" y="1509" type="line"/>
      <point x="369" y="1567" type="line"/>
    </contour>
  </outline>
</glyph>
<glyph name="plus" format="1">
  <advance width="1005"/>
  <unicode hex="002B"/>
  <outline>
    <contour>
      <point x="886" y="518" type="line"/>
      <point x="572" y="518" type="line"/>
      <point x="572" y="174" type="line"/>
      <point x="431" y="174" type="line"/>
      <point x="431" y="518" type="line"/>
      <point x="118" y="518" type="line"/>
      <point x="118" y="651" type="line"/>
      <point x="431" y="651" type="line"/>
      <point x="431" y="995" type="line"/>
      <point x="572" y="995" type="line"/>
      <point x="572" y="651" type="line"/>
      <point x="886" y="651" type="line"/>
    </contour>
  </outline>
</glyph>
<glyph name="slash" format="1">
  <advance width="727"/>
  <unicode hex="002F"/>
  <outline>
    <contour>
      <point x="-33" y="-117" type="line"/>
      <point x="592" y="1731" type="line"/>
      <point x="761" y="1669" type="line"/>
      <point x="137" y="-179" type="line"/>
    </contour>
  </outline>
</glyph>
<glyph name="zero" format="1">
  <advance width="1374"/>
  <unicode hex="0030"/>
  <outline>
    <contour>
      <point x="1256" y="590" type="curve" smooth="yes"/>
      <point x="1256" y="238"/>
      <point x="1055" y="-31"/>
      <point x="685" y="-31" type="curve" smooth="yes"/>
      <point x="318" y="-31"/>
      <point x="118" y="244"/>
      <point x="118" y="590" type="curve" smooth="yes"/>
      <point x="118" y="945"/>
      <point x="311" y="1210"/>
      <point x="685" y="1210" type="curve" smooth="yes"/>
      <point x="1057" y="1210"/>
      <point x="1256" y="942"/>
    </contour>
    <contour>
      <point x="685" y="1069" type="curve" smooth="yes"/>
      <point x="395" y="1069"/>
      <point x="304" y="846"/>
      <point x="304" y="592" type="curve" smooth="yes"/>
      <point x="304" y="336"/>
      <point x="399" y="111"/>
      <point x="685" y="111" type="curve" smooth="yes"/>
      <point x="985" y="111"/>
      <point x="1070" y="348"/>
      <point x="1070" y="606" type="curve" smooth="yes"/>
      <point x="1070" y="857"/>
      <point x="966" y="1069"/>
    </contour>
  </outline>
</glyph>
<glyph name="two" format="1">
  <advance width="1054"/>
  <unicode hex="0032"/>
  <outline>
    <contour>
      <point x="337" y="152" type="curve"/>
      <point x="933" y="152" type="line"/>
      <point x="933" y="0" type="line"/>
      <point x="118" y="0" type="line"/>
      <point x="118" y="146" type="line"/>
      <point x="526" y="480" type="line" smooth="yes"/>
      <point x="644" y="577"/>
      <point x="771" y="682"/>
      <point x="771" y="846" type="curve" smooth="yes"/>
      <point x="771" y="1007"/>
      <point x="635" y="1059"/>
      <point x="495" y="1059" type="curve" smooth="yes"/>
      <point x="408" y="1059"/>
      <point x="308" y="1030"/>
      <point x="230" y="992" type="curve"/>
      <point x="177" y="1108" type="line"/>
      <point x="277" y="1178"/>
      <point x="396" y="1198"/>
      <point x="517" y="1198" type="curve" smooth="yes"/>
      <point x="751" y="1198"/>
      <point x="933" y="1098"/>
      <point x="933" y="845" type="curve" smooth="yes"/>
      <point x="933" y="548"/>
      <point x="533" y="310"/>
    </contour>
  </outline>
</glyph>
<glyph name="three" format="1">
  <advance width="988"/>
  <unicode hex="0033"/>
  <outline>
    <contour>
      <point x="724" y="843" type="curve" smooth="yes"/>
      <point x="724" y="1022"/>
      <point x="590" y="1063"/>
      <point x="435" y="1063" type="curve" smooth="yes"/>
      <point x="331" y="1063"/>
      <point x="231" y="1037"/>
      <point x="138" y="992" type="curve"/>
      <point x="88" y="1125" type="line"/>
      <point x="193" y="1172"/>
      <point x="327" y="1206"/>
      <point x="441" y="1206" type="curve" smooth="yes"/>
      <point x="659" y="1206"/>
      <point x="889" y="1121"/>
      <point x="889" y="866" type="curve" smooth="yes"/>
      <point x="889" y="704"/>
      <point x="772" y="546"/>
      <point x="600" y="545" type="curve"/>
      <point x="798" y="504"/>
      <point x="928" y="377"/>
      <point x="928" y="166" type="curve" smooth="yes"/>
      <point x="928" y="-88"/>
      <point x="681" y="-198"/>
      <point x="460" y="-198" type="curve" smooth="yes"/>
      <point x="320" y="-198"/>
      <point x="180" y="-163"/>
      <point x="55" y="-102" type="curve"/>
      <point x="109" y="31" type="line"/>
      <point x="210" y="-23"/>
      <point x="350" y="-59"/>
      <point x="464" y="-59" type="curve" smooth="yes"/>
      <point x="628" y="-59"/>
      <point x="748" y="9"/>
      <point x="748" y="186" type="curve" smooth="yes"/>
      <point x="748" y="384"/>
      <point x="584" y="452"/>
      <point x="412" y="471" type="curve"/>
      <point x="412" y="614" type="line"/>
      <point x="562" y="614"/>
      <point x="724" y="664"/>
    </contour>
  </outline>
</glyph>
<glyph name="five" format="1">
  <advance width="990"/>
  <unicode hex="0035"/>
  <outline>
    <contour>
      <point x="441" y="-56" type="curve" smooth="yes"/>
      <point x="642" y="-56"/>
      <point x="758" y="36"/>
      <point x="758" y="244" type="curve" smooth="yes"/>
      <point x="758" y="435"/>
      <point x="660" y="562"/>
      <point x="461" y="562" type="curve" smooth="yes"/>
      <point x="363" y="562"/>
      <point x="248" y="510"/>
      <point x="162" y="468" type="curve"/>
      <point x="94" y="537" type="line"/>
      <point x="94" y="1169" type="line"/>
      <point x="842" y="1169" type="line"/>
      <point x="842" y="1018" type="line"/>
      <point x="239" y="1018" type="line"/>
      <point x="239" y="622" type="line"/>
      <point x="290" y="679"/>
      <point x="409" y="698"/>
      <point x="479" y="698" type="curve" smooth="yes"/>
      <point x="748" y="698"/>
      <point x="930" y="518"/>
      <point x="930" y="248" type="curve" smooth="yes"/>
      <point x="930" y="-49"/>
      <point x="723" y="-207"/>
      <point x="439" y="-207" type="curve" smooth="yes"/>
      <point x="297" y="-207"/>
      <point x="186" y="-165"/>
      <point x="58" y="-114" type="curve"/>
      <point x="109" y="31" type="line"/>
      <point x="207" y="-19"/>
      <point x="331" y="-56"/>
    </contour>
  </outline>
</glyph>
<glyph name="six" format="1">
  <advance width="1235"/>
  <unicode hex="0036"/>
  <outline>
    <contour>
      <point x="116" y="425" type="curve" smooth="yes"/>
      <point x="116" y="878"/>
      <point x="393" y="1216"/>
      <point x="831" y="1319" type="curve"/>
      <point x="874" y="1174" type="line"/>
      <point x="604" y="1117"/>
      <point x="366" y="931"/>
      <point x="314" y="649" type="curve"/>
      <point x="400" y="752"/>
      <point x="524" y="793"/>
      <point x="655" y="793" type="curve" smooth="yes"/>
      <point x="930" y="793"/>
      <point x="1121" y="612"/>
      <point x="1121" y="335" type="curve" smooth="yes"/>
      <point x="1121" y="38"/>
      <point x="916" y="-156"/>
      <point x="621" y="-156" type="curve" smooth="yes"/>
      <point x="268" y="-156"/>
      <point x="116" y="99"/>
    </contour>
    <contour>
      <point x="945" y="335" type="curve" smooth="yes"/>
      <point x="945" y="516"/>
      <point x="846" y="657"/>
      <point x="655" y="657" type="curve" smooth="yes"/>
      <point x="555" y="657"/>
      <point x="369" y="600"/>
      <point x="300" y="523" type="curve"/>
      <point x="294" y="483"/>
      <point x="294" y="442"/>
      <point x="294" y="401" type="curve" smooth="yes"/>
      <point x="294" y="184"/>
      <point x="371" y="-14"/>
      <point x="621" y="-14" type="curve" smooth="yes"/>
      <point x="828" y="-14"/>
      <point x="945" y="138"/>
    </contour>
  </outline>
</glyph>
<glyph name="seven" format="1">
  <advance width="1114"/>
  <unicode hex="0037"/>
  <outline>
    <contour>
      <point x="952" y="1229" type="line"/>
      <point x="1009" y="1107" type="line"/>
      <point x="437" y="-176" type="line"/>
      <point x="269" y="-100" type="line"/>
      <point x="794" y="1074" type="line"/>
      <point x="116" y="1074" type="line"/>
      <point x="116" y="1229" type="line"/>
    </contour>
  </outline>
</glyph>
<glyph name="colon" format="1">
  <advance width="528"/>
  <unicode hex="003A"/>
  <outline>
    <contour>
      <point x="129" y="864" type="line"/>
      <point x="399" y="864" type="line"/>
      <point x="399" y="583" type="line"/>
      <point x="129" y="583" type="line"/>
    </contour>
    <contour>
      <point x="129" y="281" type="line"/>
      <point x="399" y="281" type="line"/>
      <point x="399" y="0" type="line"/>
      <point x="129" y="0" type="line"/>
    </contour>
  </outline>
</glyph>
<glyph name="less" format="1">
  <advance width="868"/>
  <unicode hex="003C"/>
  <outline>
    <contour>
      <point x="52" y="663" type="line"/>
      <point x="707" y="1266" type="line"/>
      <point x="809" y="1156" type="line"/>
      <point x="258" y="663" type="line"/>
      <point x="809" y="170" type="line"/>
      <point x="707" y="60" type="line"/>
    </contour>
  </outline>
</glyph>
<glyph name="equal" format="1">
  <advance width="835"/>
  <unicode hex="003D"/>
  <outline>
    <contour>
      <point x="711" y="280" type="line"/>
      <point x="123" y="280" type="line"/>
      <point x="123" y="411" type="line"/>
      <point x="711" y="411" type="line"/>
    </contour>
    <contour>
      <point x="711" y="508" type="line"/>
      <point x="123" y="508" type="line"/>
      <point x="123" y="639" type="line"/>
      <point x="711" y="639" type="line"/>
    </contour>
  </outline>
</glyph>
<glyph name="greater" format="1">
  <advance width="694"/>
  <unicode hex="003E"/>
  <outline>
    <contour>
      <point x="730" y="663" type="line"/>
      <point x="75" y="60" type="line"/>
      <point x="-27" y="170" type="line"/>
      <point x="524" y="663" type="line"/>
      <point x="-27" y="1156" type="line"/>
      <point x="75" y="1266" type="line"/>
    </contour>
  </outline>
</glyph>
<glyph name="question" format="1">
  <advance width="971"/>
  <unicode hex="003F"/>
  <outline>
    <contour>
      <point x="287" y="-40" type="curve" smooth="yes"/>
      <point x="227" y="-40"/>
      <point x="183" y="12"/>
      <point x="183" y="70" type="curve" smooth="yes"/>
      <point x="183" y="127"/>
      <point x="237" y="169"/>
      <point x="291" y="169" type="curve" smooth="yes"/>
      <point x="346" y="169"/>
      <point x="392" y="118"/>
      <point x="392" y="64" type="curve" smooth="yes"/>
      <point x="392" y="7"/>
      <point x="344" y="-40"/>
    </contour>
    <contour>
      <point x="386" y="675" type="curve"/>
      <point x="386" y="292" type="line"/>
      <point x="206" y="292" type="line"/>
      <point x="206" y="777" type="line"/>
      <point x="396" y="841"/>
      <point x="729" y="947"/>
      <point x="729" y="1197" type="curve" smooth="yes"/>
      <point x="729" y="1392"/>
      <point x="581" y="1418"/>
      <point x="418" y="1418" type="curve" smooth="yes"/>
      <point x="315" y="1418"/>
      <point x="179" y="1388"/>
      <point x="90" y="1332" type="curve"/>
      <point x="31" y="1475" type="line"/>
      <point x="144" y="1540"/>
      <point x="309" y="1579"/>
      <point x="437" y="1579" type="curve" smooth="yes"/>
      <point x="678" y="1579"/>
      <point x="920" y="1499"/>
      <point x="920" y="1216" type="curve" smooth="yes"/>
      <point x="920" y="896"/>
      <point x="647" y="767"/>
    </contour>
  </outline>
</glyph>
<glyph name="at" format="1">
  <advance width="1873"/>
  <unicode hex="0040"/>
  <outline>
    <contour>
      <point x="1440" y="134" type="curve"/>
      <point x="1531" y="42" type="line"/>
      <point x="1395" y="-109"/>
      <point x="1136" y="-155"/>
      <point x="943" y="-155" type="curve" smooth="yes"/>
      <point x="475" y="-155"/>
      <point x="108" y="78"/>
      <point x="108" y="578" type="curve" smooth="yes"/>
      <point x="108" y="1072"/>
      <point x="459" y="1456"/>
      <point x="960" y="1456" type="curve" smooth="yes"/>
      <point x="1396" y="1456"/>
      <point x="1769" y="1230"/>
      <point x="1769" y="756" type="curve" smooth="yes"/>
      <point x="1769" y="490"/>
      <point x="1630" y="199"/>
      <point x="1328" y="199" type="curve" smooth="yes"/>
      <point x="1179" y="199"/>
      <point x="1228" y="448"/>
      <point x="1228" y="548" type="curve"/>
      <point x="1186" y="343"/>
      <point x="1025" y="199"/>
      <point x="812" y="199" type="curve" smooth="yes"/>
      <point x="574" y="199"/>
      <point x="448" y="361"/>
      <point x="448" y="590" type="curve" smooth="yes"/>
      <point x="448" y="886"/>
      <point x="728" y="1128"/>
      <point x="1015" y="1128" type="curve" smooth="yes"/>
      <point x="1108" y="1128"/>
      <point x="1208" y="1111"/>
      <point x="1300" y="1096" type="curve"/>
      <point x="1355" y="987" type="line"/>
      <point x="1355" y="317" type="line"/>
      <point x="1585" y="315"/>
      <point x="1609" y="585"/>
      <point x="1609" y="758" type="curve" smooth="yes"/>
      <point x="1609" y="1158"/>
      <point x="1331" y="1317"/>
      <point x="966" y="1317" type="curve" smooth="yes"/>
      <point x="527" y="1317"/>
      <point x="267" y="1004"/>
      <point x="267" y="578" type="curve" smooth="yes"/>
      <point x="267" y="159"/>
      <point x="565" y="-16"/>
      <point x="953" y="-16" type="curve" smooth="yes"/>
      <point x="1138" y="-16"/>
      <point x="1295" y="20"/>
    </contour>
    <contour>
      <point x="1207" y="987" type="curve"/>
      <point x="1150" y="999"/>
      <point x="1090" y="1008"/>
      <point x="1031" y="1008" type="curve" smooth="yes"/>
      <point x="788" y="1008"/>
      <point x="603" y="814"/>
      <point x="603" y="573" type="curve" smooth="yes"/>
      <point x="603" y="422"/>
      <point x="670" y="330"/>
      <point x="828" y="330" type="curve" smooth="yes"/>
      <point x="1168" y="330"/>
      <point x="1205" y="734"/>
    </contour>
  </outline>
</glyph>
<glyph name="A" format="1">
  <advance width="1400"/>
  <unicode hex="0041"/>
  <outline>
    <contour>
      <point x="1050" y="383" type="line"/>
      <point x="350" y="383" type="line"/>
      <point x="227" y="0" type="line"/>
      <point x="34" y="0" type="line"/>
      <point x="550" y="1579" type="line"/>
      <point x="850" y="1579" type="line"/>
      <point x="1366" y="0" type="line"/>
      <point x="1173" y="0" type="line"/>
    </contour>
    <contour>
      <point x="1017" y="485" type="line"/>
      <point x="700" y="1460" type="line"/>
      <point x="383" y="485" type="line"/>
    </contour>
  </outline>
</glyph>
<glyph name="B" format="1">
  <advance width="1340"/>
  <unicode hex="0042"/>
  <outline>
    <contour>
      <point x="853" y="862" type="curve"/>
      <point x="1109" y="833"/>
      <point x="1260" y="699"/>
      <point x="1260" y="434" type="curve" smooth="yes"/>
      <point x="1260" y="46"/>
      <point x="861" y="0"/>
      <point x="560" y="0" type="curve" smooth="yes"/>
      <point x="140" y="0" type="line"/>
      <point x="140" y="1579" type="line"/>
      <point x="501" y="1579" type="line" smooth="yes"/>
      <point x="800" y="1579"/>
      <point x="1178" y="1570"/>
      <point x="1178" y="1188" type="curve" smooth="yes"/>
      <point x="1178" y="976"/>
      <point x="1055" y="892"/>
    </contour>
    <contour>
      <point x="560" y="143" type="line" smooth="yes"/>
      <point x="809" y="143"/>
      <point x="1078" y="152"/>
      <point x="1078" y="466" type="curve" smooth="yes"/>
      <point x="1078" y="759"/>
      <point x="835" y="786"/>
      <point x="597" y="786" type="curve" smooth="yes"/>
      <point x="334" y="786" type="line"/>
      <point x="334" y="143" type="line"/>
    </contour>
    <contour>
      <point x="1013" y="1188" type="curve" smooth="yes"/>
      <point x="1013" y="1450"/>
      <point x="695" y="1436"/>
      <point x="505" y="1436" type="curve" smooth="yes"/>
      <point x="334" y="1436" type="line"/>
      <point x="334" y="915" type="line"/>
      <point x="593" y="915" type="line" smooth="yes"/>
      <point x="800" y="915"/>
      <point x="1013" y="935"/>
    </contour>
  </outline>
</glyph>
<glyph name="C" format="1">
  <advance width="1312"/>
  <unicode hex="0043"/>
  <outline>
    <contour>
      <point x="794" y="1458" type="curve" smooth="yes"/>
      <point x="390" y="1458"/>
      <point x="315" y="1119"/>
      <point x="315" y="784" type="curve" smooth="yes"/>
      <point x="315" y="446"/>
      <point x="394" y="111"/>
      <point x="794" y="111" type="curve" smooth="yes"/>
      <point x="925" y="111"/>
      <point x="1049" y="171"/>
      <point x="1168" y="218" type="curve"/>
      <point x="1224" y="79" type="line"/>
      <point x="1074" y="18"/>
      <point x="942" y="-41"/>
      <point x="774" y="-41" type="curve" smooth="yes"/>
      <point x="270" y="-41"/>
      <point x="114" y="348"/>
      <point x="114" y="788" type="curve" smooth="yes"/>
      <point x="114" y="1252"/>
      <point x="291" y="1610"/>
      <point x="794" y="1610" type="curve" smooth="yes"/>
      <point x="955" y="1610"/>
      <point x="1046" y="1574"/>
      <point x="1196" y="1530" type="curve"/>
      <point x="1151" y="1385" type="line"/>
      <point x="1031" y="1430"/>
      <point x="924" y="1458"/>
    </contour>
  </outline>
</glyph>
<glyph name="D" format="1">
  <advance width="1488"/>
  <unicode hex="0044"/>
  <outline>
    <contour>
      <point x="715" y="1579" type="line" smooth="yes"/>
      <point x="1212" y="1579"/>
      <point x="1374" y="1238"/>
      <point x="1374" y="788" type="curve" smooth="yes"/>
      <point x="1374" y="338"/>
      <point x="1211" y="0"/>
      <point x="715" y="0" type="curve" smooth="yes"/>
      <point x="140" y="0" type="line"/>
      <point x="140" y="1579" type="line"/>
    </contour>
    <contour>
      <point x="715" y="1436" type="curve" smooth="yes"/>
      <point x="334" y="1436" type="line"/>
      <point x="334" y="143" type="line"/>
      <point x="715" y="143" type="line" smooth="yes"/>
      <point x="1108" y="143"/>
      <point x="1173" y="465"/>
      <point x="1173" y="789" type="curve" smooth="yes"/>
      <point x="1173" y="1111"/>
      <point x="1104" y="1436"/>
    </contour>
  </outline>
</glyph>
<glyph name="E" format="1">
  <advance width="1163"/>
  <unicode hex="0045"/>
  <outline>
    <contour>
      <point x="1123" y="0" type="line"/>
      <point x="140" y="0" type="line"/>
      <point x="140" y="1579" type="line"/>
      <point x="1110" y="1579" type="line"/>
      <point x="1110" y="1436" type="line"/>
      <point x="334" y="1436" type="line"/>
      <point x="334" y="891" type="line"/>
      <point x="1012" y="891" type="line"/>
      <point x="1012" y="776" type="line"/>
      <point x="334" y="776" type="line"/>
      <point x="334" y="143" type="line"/>
      <point x="1123" y="143" type="line"/>
    </contour>
  </outline>
</glyph>
<glyph name="G" format="1">
  <advance width="1458"/>
  <unicode hex="0047"/>
  <outline>
    <contour>
      <point x="745" y="-41" type="curve" smooth="yes"/>
      <point x="284" y="-41"/>
      <point x="114" y="388"/>
      <point x="114" y="786" type="curve" smooth="yes"/>
      <point x="114" y="1243"/>
      <point x="289" y="1610"/>
      <point x="788" y="1610" type="curve" smooth="yes"/>
      <point x="952" y="1610"/>
      <point x="1094" y="1562"/>
      <point x="1230" y="1476" type="curve"/>
      <point x="1164" y="1341" type="line"/>
      <point x="1070" y="1420"/>
      <point x="905" y="1458"/>
      <point x="786" y="1458" type="curve" smooth="yes"/>
      <point x="383" y="1458"/>
      <point x="315" y="1112"/>
      <point x="315" y="782" type="curve" smooth="yes"/>
      <point x="315" y="449"/>
      <point x="387" y="111"/>
      <point x="792" y="111" type="curve" smooth="yes"/>
      <point x="978" y="111"/>
      <point x="1168" y="183"/>
      <point x="1168" y="399" type="curve" smooth="yes"/>
      <point x="1168" y="684" type="line"/>
      <point x="766" y="684" type="line"/>
      <point x="766" y="811" type="line"/>
      <point x="1353" y="811" type="line"/>
      <point x="1353" y="0" type="line"/>
      <point x="1265" y="0" type="line"/>
      <point x="1212" y="213" type="line"/>
      <point x="1162" y="10"/>
      <point x="925" y="-41"/>
    </contour>
  </outline>
</glyph>
<glyph name="H" format="1">
  <advance width="1500"/>
  <unicode hex="0048"/>
  <outline>
    <contour>
      <point x="1166" y="0" type="line"/>
      <point x="1166" y="764" type="line"/>
      <point x="334" y="764" type="line"/>
      <point x="334" y="0" type="line"/>
      <point x="140" y="0" type="line"/>
      <point x="140" y="1579" type="line"/>
      <point x="334" y="1579" type="line"/>
      <point x="334" y="879" type="line"/>
      <point x="1166" y="879" type="line"/>
      <point x="1166" y="1579" type="line"/>
      <point x="1360" y="1579" type="line"/>
      <point x="1360" y="0" type="line"/>
    </contour>
  </outline>
</glyph>
<glyph name="K" format="1">
  <advance width="1339"/>
  <unicode hex="004B"/>
  <outline>
    <contour>
      <point x="334" y="747" type="line"/>
      <point x="334" y="0" type="line"/>
      <point x="140" y="0" type="line"/>
      <point x="140" y="1579" type="line"/>
      <point x="334" y="1579" type="line"/>
      <point x="334" y="857" type="line"/>
      <point x="557" y="857" type="line"/>
      <point x="1029" y="1579" type="line"/>
      <point x="1240" y="1579" type="line"/>
      <point x="732" y="805" type="line"/>
      <point x="1307" y="0" type="line"/>
      <point x="1084" y="0" type="line"/>
      <point x="567" y="747" type="line"/>
    </contour>
  </outline>
</glyph>
<glyph name="M" format="1">
  <advance width="1812"/>
  <unicode hex="004D"/>
  <outline>
    <contour>
      <point x="818" y="112" type="line"/>
      <point x="314" y="1399" type="line"/>
      <point x="314" y="0" type="line"/>
      <point x="140" y="0" type="line"/>
      <point x="140" y="1579" type="line"/>
      <point x="421" y="1579" type="line"/>
      <point x="906" y="320" type="line"/>
      <point x="1391" y="1579" type="line"/>
      <point x="1672" y="1579" type="line"/>
      <point x="1672" y="0" type="line"/>
      <point x="1499" y="0" type="line"/>
      <point x="1499" y="1399" type="line"/>
      <point x="984" y="112" type="line"/>
    </contour>
  </outline>
</glyph>
<glyph name="N" format="1">
  <advance width="1533"/>
  <unicode hex="004E"/>
  <outline>
    <contour>
      <point x="1221" y="175" type="line"/>
      <point x="1221" y="1579" type="line"/>
      <point x="1393" y="1579" type="line"/>
      <point x="1393" y="0" type="line"/>
      <point x="1131" y="0" type="line"/>
      <point x="312" y="1404" type="line"/>
      <point x="312" y="0" type="line"/>
      <point x="140" y="0" type="line"/>
      <point x="140" y="1579" type="line"/>
      <point x="402" y="1579" type="line"/>
    </contour>
  </outline>
</glyph>
<glyph name="O" format="1">
  <advance width="1538"/>
  <unicode hex="004F"/>
  <outline>
    <contour>
      <point x="1224" y="784" type="curve" smooth="yes"/>
      <point x="1224" y="1103"/>
      <point x="1160" y="1458"/>
      <point x="770" y="1458" type="curve" smooth="yes"/>
      <point x="377" y="1458"/>
      <point x="314" y="1101"/>
      <point x="314" y="784" type="curve" smooth="yes"/>
      <point x="314" y="458"/>
      <point x="385" y="111"/>
      <point x="779" y="111" type="curve" smooth="yes"/>
      <point x="1160" y="111"/>
      <point x="1224" y="480"/>
    </contour>
    <contour>
      <point x="1424" y="784" type="curve" smooth="yes"/>
      <point x="1424" y="344"/>
      <point x="1270" y="-41"/>
      <point x="768" y="-41" type="curve" smooth="yes"/>
      <point x="270" y="-41"/>
      <point x="114" y="335"/>
      <point x="114" y="784" type="curve" smooth="yes"/>
      <point x="114" y="1214"/>
      <point x="269" y="1610"/>
      <point x="754" y="1610" type="curve" smooth="yes"/>
      <point x="1265" y="1610"/>
      <point x="1424" y="1236"/>
    </contour>
  </outline>
</glyph>
<glyph name="R" format="1">
  <advance width="1357"/>
  <unicode hex="0052"/>
  <outline>
    <contour>
      <point x="334" y="862" type="line"/>
      <point x="575" y="862" type="line" smooth="yes"/>
      <point x="775" y="862"/>
      <point x="1063" y="885"/>
      <point x="1063" y="1150" type="curve" smooth="yes"/>
      <point x="1063" y="1465"/>
      <point x="749" y="1436"/>
      <point x="516" y="1436" type="curve" smooth="yes"/>
      <point x="334" y="1436" type="line"/>
    </contour>
    <contour>
      <point x="820" y="797" type="curve"/>
      <point x="1070" y="770"/>
      <point x="1231" y="668"/>
      <point x="1231" y="397" type="curve" smooth="yes"/>
      <point x="1231" y="0" type="line"/>
      <point x="1049" y="0" type="line"/>
      <point x="1049" y="545"/>
      <point x="1138" y="733"/>
      <point x="514" y="733" type="curve" smooth="yes"/>
      <point x="334" y="733" type="line"/>
      <point x="334" y="0" type="line"/>
      <point x="140" y="0" type="line"/>
      <point x="140" y="1579" type="line"/>
      <point x="516" y="1579" type="line" smooth="yes"/>
      <point x="830" y="1579"/>
      <point x="1233" y="1579"/>
      <point x="1233" y="1160" type="curve" smooth="yes"/>
      <point x="1233" y="926"/>
      <point x="1038" y="797"/>
    </contour>
  </outline>
</glyph>
<glyph name="T" format="1">
  <advance width="1146"/>
  <unicode hex="0054"/>
  <outline>
    <contour>
      <point x="1127" y="1436" type="line"/>
      <point x="669" y="1436" type="line"/>
      <point x="669" y="0" type="line"/>
      <point x="479" y="0" type="line"/>
      <point x="479" y="1436" type="line"/>
      <point x="19" y="1436" type="line"/>
      <point x="19" y="1579" type="line"/>
      <point x="1127" y="1579" type="line"/>
    </contour>
  </outline>
</glyph>
<glyph name="X" format="1">
  <advance width="1354"/>
  <unicode hex="0058"/>
  <outline>
    <contour>
      <point x="289" y="0" type="curve"/>
      <point x="71" y="0" type="line"/>
      <point x="568" y="800" type="line"/>
      <point x="73" y="1579" type="line"/>
      <point x="269" y="1579" type="line"/>
      <point x="677" y="947" type="line"/>
      <point x="1085" y="1579" type="line"/>
      <point x="1281" y="1579" type="line"/>
      <point x="786" y="800" type="line"/>
      <point x="1283" y="0" type="line"/>
      <point x="1065" y="0" type="line"/>
      <point x="677" y="650" type="line"/>
      <point x="547" y="434"/>
      <point x="418" y="217"/>
    </contour>
  </outline>
</glyph>
<glyph name="Y" format="1">
  <advance width="1316"/>
  <unicode hex="0059"/>
  <outline>
    <contour>
      <point x="658" y="748" type="curve"/>
      <point x="1076" y="1579" type="line"/>
      <point x="1267" y="1579" type="line"/>
      <point x="753" y="557" type="line"/>
      <point x="753" y="0" type="line"/>
      <point x="563" y="0" type="line"/>
      <point x="563" y="557" type="line"/>
      <point x="49" y="1579" type="line"/>
      <point x="246" y="1579" type="line"/>
      <point x="381" y="1301"/>
      <point x="518" y="1024"/>
    </contour>
  </outline>
</glyph>
<glyph name="Z" format="1">
  <advance width="1252"/>
  <unicode hex="005A"/>
  <outline>
    <contour>
      <point x="1141" y="1579" type="line"/>
      <point x="1141" y="1419" type="line"/>
      <point x="308" y="143" type="line"/>
      <point x="1143" y="143" type="line"/>
      <point x="1143" y="0" type="line"/>
      <point x="111" y="0" type="line"/>
      <point x="111" y="180" type="line"/>
      <point x="940" y="1447" type="line"/>
      <point x="111" y="1447" type="line"/>
      <point x="111" y="1579" type="line"/>
    </contour>
  </outline>
</glyph>
<glyph name="bracketleft" format="1">
  <advance width="900"/>
  <unicode hex="005B"/>
  <outline>
    <contour>
      <point x="121" y="1579" type="line"/>
      <point x="785" y="1579" type="line"/>
      <point x="785" y="1436" type="line"/>
      <point x="314" y="1436" type="line"/>
      <point x="314" y="143" type="line"/>
      <point x="785" y="143" type="line"/>
      <point x="785" y="0" type="line"/>
      <point x="121" y="0" type="line"/>
    </contour>
  </outline>
</glyph>
<glyph name="backslash" format="1">
  <advance width="714"/>
  <unicode hex="005C"/>
  <outline>
    <contour>
      <point x="125" y="1731" type="line"/>
      <point x="748" y="-114" type="line"/>
      <point x="588" y="-172" type="line"/>
      <point x="-33" y="1679" type="line"/>
    </contour>
  </outline>
</glyph>
<glyph name="bracketright" format="1">
  <advance width="900"/>
  <unicode hex="005D"/>
  <outline>
    <contour>
      <point x="116" y="1579" type="line"/>
      <point x="780" y="1579" type="line"/>
      <point x="780" y="0" type="line"/>
      <point x="116" y="0" type="line"/>
      <point x="116" y="143" type="line"/>
      <point x="587" y="143" type="line"/>
      <point x="587" y="1436" type="line"/>
      <point x="116" y="1436" type="line"/>
    </contour>
  </outline>
</glyph>
<glyph name="asciicircum" format="1">
  <advance width="877"/>
  <unicode hex="005E"/>
  <outline>
    <contour>
      <point x="438" y="809" type="line"/>
      <point x="226" y="432" type="line"/>
      <point x="98" y="510" type="line"/>
      <point x="390" y="1011" type="line"/>
      <point x="486" y="1011" type="line"/>
      <point x="778" y="510" type="line"/>
      <point x="650" y="432" type="line"/>
    </contour>
  </outline>
</glyph>
<glyph name="underscore" format="1">
  <advance width="1187"/>
  <unicode hex="005F"/>
  <outline>
    <contour>
      <point x="1063" y="-111" type="line"/>
      <point x="123" y="-111" type="line"/>
      <point x="123" y="33" type="line"/>
      <point x="1063" y="33" type="line"/>
    </contour>
  </outline>
</glyph>
<glyph name="grave" format="1">
  <advance width="430"/>
  <unicode hex="0060"/>
  <outline>
    <contour>
      <point x="453" y="328" type="line"/>
      <point x="39" y="759" type="line"/>
      <point x="200" y="860" type="line"/>
      <point x="510" y="354" type="line"/>
    </contour>
  </outline>
</glyph>
<glyph name="a" format="1">
  <advance width="1189"/>
  <unicode hex="0061"/>
  <outline>
    <contour>
      <point x="877" y="665" type="curve"/>
      <point x="877" y="713" type="line" smooth="yes"/>
      <point x="877" y="925"/>
      <point x="849" y="1047"/>
      <point x="605" y="1047" type="curve" smooth="yes"/>
      <point x="487" y="1047"/>
      <point x="342" y="999"/>
      <point x="242" y="935" type="curve"/>
      <point x="175" y="1057" type="line"/>
      <point x="308" y="1132"/>
      <point x="438" y="1190"/>
      <point x="595" y="1190" type="curve" smooth="yes"/>
      <point x="966" y="1190"/>
      <point x="1067" y="1043"/>
      <point x="1067" y="686" type="curve" smooth="yes"/>
      <point x="1067" y="0" type="line"/>
      <point x="927" y="0" type="line"/>
      <point x="899" y="178" type="line"/>
      <point x="801" y="44"/>
      <point x="661" y="-20"/>
      <point x="494" y="-20" type="curve" smooth="yes"/>
      <point x="255" y="-20"/>
      <point x="102" y="97"/>
      <point x="102" y="343" type="curve" smooth="yes"/>
      <point x="102" y="603"/>
      <point x="310" y="715"/>
      <point x="546" y="715" type="curve" smooth="yes"/>
      <point x="632" y="715"/>
      <point x="796" y="694"/>
    </contour>
    <contour>
      <point x="541" y="117" type="curve" smooth="yes"/>
      <point x="670" y="117"/>
      <point x="785" y="185"/>
      <point x="877" y="271" type="curve"/>
      <point x="877" y="569" type="line"/>
      <point x="790" y="583"/>
      <point x="703" y="590"/>
      <point x="615" y="590" type="curve" smooth="yes"/>
      <point x="443" y="590"/>
      <point x="293" y="556"/>
      <point x="293" y="356" type="curve" smooth="yes"/>
      <point x="293" y="182"/>
      <point x="373" y="117"/>
    </contour>
  </outline>
</glyph>
<glyph name="c" format="1">
  <advance width="1091"/>
  <unicode hex="0063"/>
  <outline>
    <contour>
      <point x="285" y="580" type="curve" smooth="yes"/>
      <point x="285" y="360"/>
      <point x="358" y="125"/>
      <point x="615" y="117" type="curve" smooth="yes"/>
      <point x="736" y="113"/>
      <point x="857" y="162"/>
      <point x="944" y="236" type="curve"/>
      <point x="1001" y="111" type="line"/>
      <point x="887" y="18"/>
      <point x="752" y="-25"/>
      <point x="610" y="-20" type="curve" smooth="yes"/>
      <point x="260" y="-8"/>
      <point x="102" y="260"/>
      <point x="102" y="580" type="curve" smooth="yes"/>
      <point x="102" y="903"/>
      <point x="270" y="1190"/>
      <point x="623" y="1190" type="curve" smooth="yes"/>
      <point x="764" y="1190"/>
      <point x="887" y="1145"/>
      <point x="1001" y="1057" type="curve"/>
      <point x="943" y="931" type="line"/>
      <point x="855" y="1007"/>
      <point x="746" y="1050"/>
      <point x="630" y="1050" type="curve" smooth="yes"/>
      <point x="360" y="1050"/>
      <point x="285" y="810"/>
    </contour>
  </outline>
</glyph>
<glyph name="e" format="1">
  <advance width="1147"/>
  <unicode hex="0065"/>
  <outline>
    <contour>
      <point x="289" y="563" type="line"/>
      <point x="291" y="326"/>
      <point x="372" y="117"/>
      <point x="638" y="117" type="curve" smooth="yes"/>
      <point x="751" y="117"/>
      <point x="859" y="165"/>
      <point x="944" y="244" type="curve"/>
      <point x="1006" y="99" type="line"/>
      <point x="907" y="30"/>
      <point x="748" y="-20"/>
      <point x="626" y="-20" type="curve" smooth="yes"/>
      <point x="264" y="-20"/>
      <point x="102" y="246"/>
      <point x="102" y="578" type="curve" smooth="yes"/>
      <point x="102" y="897"/>
      <point x="265" y="1190"/>
      <point x="617" y="1190" type="curve" smooth="yes"/>
      <point x="923" y="1190"/>
      <point x="1060" y="957"/>
      <point x="1060" y="676" type="curve" smooth="yes"/>
      <point x="1060" y="638"/>
      <point x="1055" y="600"/>
      <point x="1049" y="563" type="curve"/>
    </contour>
    <contour>
      <point x="892" y="717" type="line" smooth="yes"/>
      <point x="892" y="898"/>
      <point x="823" y="1057"/>
      <point x="618" y="1057" type="curve" smooth="yes"/>
      <point x="390" y="1057"/>
      <point x="310" y="882"/>
      <point x="293" y="682" type="curve"/>
      <point x="892" y="682" type="line"/>
    </contour>
  </outline>
</glyph>
<glyph name="f" format="1">
  <advance width="773"/>
  <unicode hex="0066"/>
  <outline>
    <contour>
      <point x="583" y="1516" type="curve" smooth="yes"/>
      <point x="368" y="1516"/>
      <point x="418" y="1332"/>
      <point x="418" y="1169" type="curve"/>
      <point x="766" y="1169" type="line"/>
      <point x="766" y="1064" type="line"/>
      <point x="418" y="1064" type="line"/>
      <point x="418" y="0" type="line"/>
      <point x="228" y="0" type="line"/>
      <point x="228" y="1064" type="line"/>
      <point x="33" y="1064" type="line"/>
      <point x="33" y="1169" type="line"/>
      <point x="228" y="1169" type="line"/>
      <point x="228" y="1421"/>
      <point x="255" y="1659"/>
      <point x="559" y="1659" type="curve" smooth="yes"/>
      <point x="640" y="1659"/>
      <point x="736" y="1615"/>
      <point x="801" y="1567" type="curve"/>
      <point x="738" y="1442" type="line"/>
      <point x="696" y="1480"/>
      <point x="642" y="1516"/>
    </contour>
  </outline>
</glyph>
<glyph name="g" format="1">
  <advance width="1218"/>
  <unicode hex="0067"/>
  <outline>
    <contour>
      <point x="558" y="-278" type="curve" smooth="yes"/>
      <point x="764" y="-278"/>
      <point x="967" y="-284"/>
      <point x="967" y="-111" type="curve" smooth="yes"/>
      <point x="967" y="69"/>
      <point x="829" y="80"/>
      <point x="692" y="80" type="curve" smooth="yes"/>
      <point x="376" y="80" type="line"/>
      <point x="313" y="40"/>
      <point x="279" y="-35"/>
      <point x="279" y="-110" type="curve" smooth="yes"/>
      <point x="279" y="-250"/>
      <point x="435" y="-278"/>
    </contour>
    <contour>
      <point x="573" y="1059" type="curve" smooth="yes"/>
      <point x="374" y="1059"/>
      <point x="279" y="960"/>
      <point x="279" y="817" type="curve" smooth="yes"/>
      <point x="279" y="696"/>
      <point x="383" y="597"/>
      <point x="450" y="546" type="curve"/>
      <point x="493" y="549"/>
      <point x="601" y="574"/>
      <point x="636" y="582" type="curve" smooth="yes"/>
      <point x="814" y="622"/>
      <point x="845" y="684"/>
      <point x="845" y="794" type="curve" smooth="yes"/>
      <point x="845" y="945"/>
      <point x="758" y="1059"/>
    </contour>
    <contour>
      <point x="121" y="-125" type="curve" smooth="yes"/>
      <point x="121" y="-10"/>
      <point x="188" y="65"/>
      <point x="287" y="111" type="curve"/>
      <point x="218" y="157"/>
      <point x="168" y="237"/>
      <point x="168" y="320" type="curve" smooth="yes"/>
      <point x="168" y="424"/>
      <point x="213" y="471"/>
      <point x="313" y="506" type="curve"/>
      <point x="192" y="576"/>
      <point x="118" y="685"/>
      <point x="118" y="838" type="curve" smooth="yes"/>
      <point x="118" y="1029"/>
      <point x="299" y="1190"/>
      <point x="572" y="1190" type="curve" smooth="yes"/>
      <point x="669" y="1190"/>
      <point x="773" y="1175"/>
      <point x="852" y="1114" type="curve"/>
      <point x="951" y="1165"/>
      <point x="1048" y="1170"/>
      <point x="1157" y="1171" type="curve"/>
      <point x="1159" y="1026" type="line"/>
      <point x="919" y="1026" type="line"/>
      <point x="963" y="990"/>
      <point x="1004" y="900"/>
      <point x="1006" y="824" type="curve"/>
      <point x="1006" y="527"/>
      <point x="832" y="479"/>
      <point x="493" y="416" type="curve" smooth="yes"/>
      <point x="388" y="396"/>
      <point x="307" y="385"/>
      <point x="307" y="321" type="curve" smooth="yes"/>
      <point x="307" y="261"/>
      <point x="348" y="219"/>
      <point x="348" y="219" type="curve"/>
      <point x="664" y="219" type="line" smooth="yes"/>
      <point x="921" y="219"/>
      <point x="1129" y="176"/>
      <point x="1129" y="-106" type="curve" smooth="yes"/>
      <point x="1129" y="-376"/>
      <point x="854" y="-412"/>
      <point x="548" y="-412" type="curve" smooth="yes"/>
      <point x="346" y="-412"/>
      <point x="121" y="-368"/>
    </contour>
  </outline>
</glyph>
<glyph name="h" format="1">
  <advance width="1232"/>
  <unicode hex="0068"/>
  <outline>
    <contour>
      <point x="691" y="1047" type="curve" smooth="yes"/>
      <point x="567" y="1047"/>
      <point x="402" y="979"/>
      <point x="316" y="888" type="curve"/>
      <point x="316" y="0" type="line"/>
      <point x="126" y="0" type="line"/>
      <point x="126" y="1579" type="line"/>
      <point x="316" y="1616" type="line"/>
      <point x="316" y="1011" type="line"/>
      <point x="422" y="1108"/>
      <point x="542" y="1190"/>
      <point x="705" y="1190" type="curve" smooth="yes"/>
      <point x="998" y="1190"/>
      <point x="1113" y="1018"/>
      <point x="1113" y="727" type="curve" smooth="yes"/>
      <point x="1113" y="0" type="line"/>
      <point x="923" y="0" type="line"/>
      <point x="923" y="727" type="line" smooth="yes"/>
      <point x="923" y="892"/>
      <point x="885" y="1047"/>
    </contour>
  </outline>
</glyph>
<glyph name="j" format="1">
  <advance width="539"/>
  <unicode hex="006A"/>
  <outline>
    <contour>
      <point x="305" y="1577" type="curve" smooth="yes"/>
      <point x="370" y="1577"/>
      <point x="413" y="1524"/>
      <point x="413" y="1462" type="curve" smooth="yes"/>
      <point x="413" y="1400"/>
      <point x="370" y="1347"/>
      <point x="305" y="1347" type="curve" smooth="yes"/>
      <point x="241" y="1347"/>
      <point x="193" y="1399"/>
      <point x="193" y="1462" type="curve" smooth="yes"/>
      <point x="193" y="1524"/>
      <point x="242" y="1577"/>
    </contour>
    <contour>
      <point x="23" y="-258" type="line"/>
      <point x="197" y="-147"/>
      <point x="211" y="-14"/>
      <point x="211" y="176" type="curve" smooth="yes"/>
      <point x="211" y="1169" type="line"/>
      <point x="401" y="1169" type="line"/>
      <point x="401" y="154" type="line" smooth="yes"/>
      <point x="401" y="-68"/>
      <point x="308" y="-315"/>
      <point x="70" y="-373" type="curve"/>
    </contour>
  </outline>
</glyph>
<glyph name="k" format="1">
  <advance width="1125"/>
  <unicode hex="006B"/>
  <outline>
    <contour>
      <point x="1077" y="1169" type="line"/>
      <point x="566" y="658" type="line"/>
      <point x="1128" y="0" type="line"/>
      <point x="903" y="0" type="line"/>
      <point x="427" y="565" type="line"/>
      <point x="321" y="459" type="line"/>
      <point x="321" y="0" type="line"/>
      <point x="131" y="0" type="line"/>
      <point x="131" y="1579" type="line"/>
      <point x="321" y="1614" type="line"/>
      <point x="321" y="643" type="line"/>
      <point x="846" y="1169" type="line"/>
    </contour>
  </outline>
</glyph>
<glyph name="l" format="1">
  <advance width="482"/>
  <unicode hex="006C"/>
  <outline>
    <contour>
      <point x="146" y="0" type="line"/>
      <point x="146" y="1579" type="line"/>
      <point x="336" y="1614" type="line"/>
      <point x="336" y="0" type="line"/>
    </contour>
  </outline>
</glyph>
<glyph name="m" format="1">
  <advance width="1903"/>
  <unicode hex="006D"/>
  <outline>
    <contour>
      <point x="1008" y="967" type="curve"/>
      <point x="1100" y="1101"/>
      <point x="1265" y="1190"/>
      <point x="1428" y="1190" type="curve" smooth="yes"/>
      <point x="1677" y="1190"/>
      <point x="1784" y="992"/>
      <point x="1784" y="766" type="curve" smooth="yes"/>
      <point x="1784" y="0" type="line"/>
      <point x="1594" y="0" type="line"/>
      <point x="1594" y="768" type="line" smooth="yes"/>
      <point x="1594" y="912"/>
      <point x="1571" y="1047"/>
      <point x="1400" y="1047" type="curve" smooth="yes"/>
      <point x="1257" y="1047"/>
      <point x="1133" y="957"/>
      <point x="1038" y="858" type="curve"/>
      <point x="1038" y="0" type="line"/>
      <point x="848" y="0" type="line"/>
      <point x="848" y="768" type="line" smooth="yes"/>
      <point x="848" y="912"/>
      <point x="828" y="1047"/>
      <point x="656" y="1047" type="curve" smooth="yes"/>
      <point x="524" y="1047"/>
      <point x="404" y="966"/>
      <point x="316" y="878" type="curve"/>
      <point x="316" y="0" type="line"/>
      <point x="126" y="0" type="line"/>
      <point x="126" y="1169" type="line"/>
      <point x="267" y="1169" type="line"/>
      <point x="290" y="982" type="line"/>
      <point x="385" y="1112"/>
      <point x="527" y="1190"/>
      <point x="687" y="1190" type="curve" smooth="yes"/>
      <point x="837" y="1190"/>
      <point x="961" y="1112"/>
    </contour>
  </outline>
</glyph>
<glyph name="n" format="1">
  <advance width="1229"/>
  <unicode hex="006E"/>
  <outline>
    <contour>
      <point x="316" y="880" type="curve"/>
      <point x="316" y="0" type="line"/>
      <point x="126" y="0" type="line"/>
      <point x="126" y="1169" type="line"/>
      <point x="266" y="1169" type="line"/>
      <point x="290" y="982" type="line"/>
      <point x="384" y="1101"/>
      <point x="590" y="1188"/>
      <point x="739" y="1188" type="curve" smooth="yes"/>
      <point x="1014" y="1188"/>
      <point x="1110" y="975"/>
      <point x="1110" y="727" type="curve" smooth="yes"/>
      <point x="1110" y="0" type="line"/>
      <point x="920" y="0" type="line"/>
      <point x="920" y="727" type="line" smooth="yes"/>
      <point x="920" y="884"/>
      <point x="887" y="1047"/>
      <point x="696" y="1047" type="curve" smooth="yes"/>
      <point x="585" y="1047"/>
      <point x="398" y="956"/>
    </contour>
  </outline>
</glyph>
<glyph name="o" format="1">
  <advance width="1265"/>
  <unicode hex="006F"/>
  <outline>
    <contour>
      <point x="102" y="582" type="curve" smooth="yes"/>
      <point x="102" y="914"/>
      <point x="273" y="1190"/>
      <point x="632" y="1190" type="curve" smooth="yes"/>
      <point x="992" y="1190"/>
      <point x="1163" y="915"/>
      <point x="1163" y="582" type="curve" smooth="yes"/>
      <point x="1163" y="248"/>
      <point x="991" y="-20"/>
      <point x="632" y="-20" type="curve" smooth="yes"/>
      <point x="273" y="-20"/>
      <point x="102" y="249"/>
    </contour>
    <contour>
      <point x="284" y="582" type="curve" smooth="yes"/>
      <point x="284" y="352"/>
      <point x="362" y="117"/>
      <point x="632" y="117" type="curve" smooth="yes"/>
      <point x="904" y="117"/>
      <point x="980" y="351"/>
      <point x="980" y="582" type="curve" smooth="yes"/>
      <point x="980" y="812"/>
      <point x="903" y="1051"/>
      <point x="632" y="1051" type="curve" smooth="yes"/>
      <point x="361" y="1051"/>
      <point x="284" y="812"/>
    </contour>
  </outline>
</glyph>
<glyph name="p" format="1">
  <advance width="1242"/>
  <unicode hex="0070"/>
  <outline>
    <contour>
      <point x="958" y="567" type="curve" smooth="yes"/>
      <point x="958" y="759"/>
      <point x="922" y="1047"/>
      <point x="666" y="1047" type="curve" smooth="yes"/>
      <point x="556" y="1047"/>
      <point x="393" y="972"/>
      <point x="316" y="890" type="curve"/>
      <point x="316" y="285" type="line"/>
      <point x="381" y="202"/>
      <point x="550" y="117"/>
      <point x="651" y="117" type="curve" smooth="yes"/>
      <point x="893" y="117"/>
      <point x="958" y="355"/>
    </contour>
    <contour>
      <point x="670" y="-20" type="curve" smooth="yes"/>
      <point x="531" y="-20"/>
      <point x="403" y="58"/>
      <point x="316" y="164" type="curve"/>
      <point x="316" y="-465" type="line"/>
      <point x="126" y="-487" type="line"/>
      <point x="126" y="1169" type="line"/>
      <point x="267" y="1169" type="line"/>
      <point x="300" y="971" type="line"/>
      <point x="387" y="1088"/>
      <point x="514" y="1190"/>
      <point x="665" y="1190" type="curve" smooth="yes"/>
      <point x="1009" y="1190"/>
      <point x="1140" y="882"/>
      <point x="1140" y="584" type="curve" smooth="yes"/>
      <point x="1140" y="291"/>
      <point x="1007" y="-20"/>
    </contour>
  </outline>
</glyph>
<glyph name="q" format="1">
  <advance width="1245"/>
  <unicode hex="0071"/>
  <outline>
    <contour>
      <point x="284" y="584" type="curve" smooth="yes"/>
      <point x="284" y="385"/>
      <point x="352" y="117"/>
      <point x="592" y="117" type="curve" smooth="yes"/>
      <point x="706" y="117"/>
      <point x="847" y="184"/>
      <point x="929" y="268" type="curve"/>
      <point x="929" y="891" type="line"/>
      <point x="845" y="975"/>
      <point x="696" y="1047"/>
      <point x="576" y="1047" type="curve" smooth="yes"/>
      <point x="330" y="1047"/>
      <point x="284" y="774"/>
    </contour>
    <contour>
      <point x="563" y="1190" type="curve" smooth="yes"/>
      <point x="712" y="1190"/>
      <point x="862" y="1097"/>
      <point x="943" y="975" type="curve"/>
      <point x="980" y="1169" type="line"/>
      <point x="1119" y="1169" type="line"/>
      <point x="1119" y="-479" type="line"/>
      <point x="929" y="-502" type="line"/>
      <point x="929" y="153" type="line"/>
      <point x="845" y="46"/>
      <point x="711" y="-20"/>
      <point x="573" y="-20" type="curve" smooth="yes"/>
      <point x="233" y="-20"/>
      <point x="102" y="288"/>
      <point x="102" y="584" type="curve" smooth="yes"/>
      <point x="102" y="878"/>
      <point x="221" y="1190"/>
    </contour>
  </outline>
</glyph>
<glyph name="r" format="1">
  <advance width="771"/>
  <unicode hex="0072"/>
  <outline>
    <contour>
      <point x="621" y="1190" type="curve" smooth="yes"/>
      <point x="655" y="1190"/>
      <point x="689" y="1187"/>
      <point x="721" y="1178" type="curve"/>
      <point x="721" y="1026" type="line"/>
      <point x="701" y="1030"/>
      <point x="679" y="1030"/>
      <point x="659" y="1030" type="curve" smooth="yes"/>
      <point x="558" y="1030"/>
      <point x="391" y="966"/>
      <point x="316" y="894" type="curve"/>
      <point x="316" y="0" type="line"/>
      <point x="126" y="0" type="line"/>
      <point x="126" y="1169" type="line"/>
      <point x="269" y="1169" type="line"/>
      <point x="299" y="977" type="line"/>
      <point x="375" y="1076"/>
      <point x="486" y="1190"/>
    </contour>
  </outline>
</glyph>
<glyph name="t" format="1">
  <advance width="803"/>
  <unicode hex="0074"/>
  <outline>
    <contour>
      <point x="745" y="40" type="line"/>
      <point x="671" y="5"/>
      <point x="590" y="-14"/>
      <point x="508" y="-14" type="curve" smooth="yes"/>
      <point x="319" y="-14"/>
      <point x="209" y="116"/>
      <point x="209" y="300" type="curve" smooth="yes"/>
      <point x="209" y="1065" type="line"/>
      <point x="26" y="1065" type="line"/>
      <point x="26" y="1169" type="line"/>
      <point x="213" y="1169" type="line"/>
      <point x="237" y="1530" type="line"/>
      <point x="399" y="1576" type="line"/>
      <point x="399" y="1169" type="line"/>
      <point x="732" y="1169" type="line"/>
      <point x="732" y="1065" type="line"/>
      <point x="399" y="1065" type="line"/>
      <point x="399" y="298" type="line" smooth="yes"/>
      <point x="399" y="206"/>
      <point x="442" y="125"/>
      <point x="540" y="125" type="curve" smooth="yes"/>
      <point x="598" y="125"/>
      <point x="657" y="144"/>
      <point x="709" y="169" type="curve"/>
    </contour>
  </outline>
</glyph>
<glyph name="u" format="1">
  <advance width="1211"/>
  <unicode hex="0075"/>
  <outline>
    <contour>
      <point x="895" y="274" type="curve"/>
      <point x="895" y="1169" type="line"/>
      <point x="1085" y="1169" type="line"/>
      <point x="1085" y="0" type="line"/>
      <point x="944" y="0" type="line"/>
      <point x="917" y="171" type="line"/>
      <point x="845" y="86"/>
      <point x="709" y="-18"/>
      <point x="528" y="-20" type="curve"/>
      <point x="521" y="-20" type="line" smooth="yes"/>
      <point x="231" y="-20"/>
      <point x="119" y="165"/>
      <point x="119" y="442" type="curve" smooth="yes"/>
      <point x="119" y="1169" type="line"/>
      <point x="309" y="1169" type="line"/>
      <point x="309" y="442" type="line" smooth="yes"/>
      <point x="309" y="276"/>
      <point x="347" y="117"/>
      <point x="541" y="117" type="curve" smooth="yes"/>
      <point x="676" y="117"/>
      <point x="798" y="179"/>
    </contour>
  </outline>
</glyph>
<glyph name="v" format="1">
  <advance width="1094"/>
  <unicode hex="0076"/>
  <outline>
    <contour>
      <point x="639" y="0" type="line"/>
      <point x="453" y="0" type="line"/>
      <point x="25" y="1169" type="line"/>
      <point x="213" y="1169" type="line"/>
      <point x="549" y="199" type="line"/>
      <point x="879" y="1169" type="line"/>
      <point x="1069" y="1169" type="line"/>
    </contour>
  </outline>
</glyph>
<glyph name="x" format="1">
  <advance width="1074"/>
  <unicode hex="0078"/>
  <outline>
    <contour>
      <point x="38" y="1169" type="line"/>
      <point x="234" y="1169" type="line"/>
      <point x="536" y="712" type="line"/>
      <point x="840" y="1169" type="line"/>
      <point x="1036" y="1169" type="line"/>
      <point x="638" y="584" type="line"/>
      <point x="1028" y="0" type="line"/>
      <point x="834" y="0" type="line"/>
      <point x="542" y="467" type="line"/>
      <point x="240" y="0" type="line"/>
      <point x="44" y="0" type="line"/>
      <point x="441" y="584" type="line"/>
    </contour>
  </outline>
</glyph>
<glyph name="z" format="1">
  <advance width="1012"/>
  <unicode hex="007A"/>
  <outline>
    <contour>
      <point x="900" y="1169" type="line"/>
      <point x="900" y="1004" type="line"/>
      <point x="274" y="145" type="line"/>
      <point x="900" y="145" type="line"/>
      <point x="900" y="0" type="line"/>
      <point x="98" y="0" type="line"/>
      <point x="98" y="166" type="line"/>
      <point x="736" y="1029" type="line"/>
      <point x="128" y="1029" type="line"/>
      <point x="128" y="1169" type="line"/>
    </contour>
  </outline>
</glyph>
<glyph name="braceleft" format="1">
  <advance width="766"/>
  <unicode hex="007B"/>
  <outline>
    <contour>
      <point x="57" y="571" type="curve"/>
      <point x="57" y="759" type="line"/>
      <point x="518" y="758"/>
      <point x="37" y="1540"/>
      <point x="704" y="1539" type="curve"/>
      <point x="705" y="1370" type="line"/>
      <point x="249" y="1373"/>
      <point x="677" y="783"/>
      <point x="224" y="665" type="curve"/>
      <point x="677" y="547"/>
      <point x="249" y="-43"/>
      <point x="705" y="-40" type="curve"/>
      <point x="704" y="-209" type="line"/>
      <point x="37" y="-210"/>
      <point x="518" y="572"/>
    </contour>
  </outline>
</glyph>
<glyph name="exclamdown" format="1">
  <advance width="410"/>
  <unicode hex="00A1"/>
  <outline>
    <contour>
      <point x="296" y="1180" type="line"/>
      <point x="296" y="0" type="line"/>
      <point x="122" y="0" type="line"/>
      <point x="122" y="1180" type="line"/>
    </contour>
    <contour>
      <point x="281" y="1393" type="line"/>
      <point x="72" y="1393" type="line"/>
      <point x="72" y="1595" type="line"/>
      <point x="281" y="1595" type="line"/>
    </contour>
  </outline>
</glyph>
<glyph name="cent" format="1">
  <advance width="1014"/>
  <unicode hex="00A2"/>
  <outline>
    <contour>
      <point x="537" y="129" type="curve"/>
      <point x="537" y="1037" type="line"/>
      <point x="303" y="1007"/>
      <point x="253" y="781"/>
      <point x="253" y="580" type="curve" smooth="yes"/>
      <point x="253" y="385"/>
      <point x="307" y="153"/>
    </contour>
    <contour>
      <point x="537" y="-159" type="line"/>
      <point x="537" y="-22" type="line"/>
      <point x="203" y="-2"/>
      <point x="63" y="272"/>
      <point x="63" y="580" type="curve" smooth="yes"/>
      <point x="63" y="895"/>
      <point x="202" y="1156"/>
      <point x="537" y="1189" type="curve"/>
      <point x="537" y="1329" type="line"/>
      <point x="640" y="1329" type="line"/>
      <point x="640" y="1186" type="line"/>
      <point x="744" y="1185"/>
      <point x="873" y="1131"/>
      <point x="962" y="1077" type="curve"/>
      <point x="905" y="944" type="line"/>
      <point x="833" y="997"/>
      <point x="730" y="1037"/>
      <point x="640" y="1038" type="curve"/>
      <point x="640" y="130" type="line"/>
      <point x="731" y="130"/>
      <point x="827" y="158"/>
      <point x="905" y="205" type="curve"/>
      <point x="951" y="68" type="line"/>
      <point x="862" y="23"/>
      <point x="740" y="-18"/>
      <point x="640" y="-19" type="curve"/>
      <point x="640" y="-159" type="line"/>
    </contour>
  </outline>
</glyph>
<glyph name="currency" format="1">
  <advance width="1180"/>
  <unicode hex="00A4"/>
  <outline>
    <contour>
      <point x="231" y="742" type="line"/>
      <point x="187" y="809"/>
      <point x="163" y="887"/>
      <point x="163" y="967" type="curve" smooth="yes"/>
      <point x="163" y="1053"/>
      <point x="190" y="1137"/>
      <point x="238" y="1208" type="curve"/>
      <point x="44" y="1402" type="line"/>
      <point x="168" y="1526" type="line"/>
      <point x="362" y="1333" type="line"/>
      <point x="434" y="1382"/>
      <point x="518" y="1409"/>
      <point x="605" y="1409" type="curve" smooth="yes"/>
      <point x="685" y="1409"/>
      <point x="763" y="1385"/>
      <point x="830" y="1341" type="curve"/>
      <point x="1016" y="1526" type="line"/>
      <point x="1140" y="1402" type="line"/>
      <point x="953" y="1215" type="line"/>
      <point x="994" y="1150"/>
      <point x="1014" y="1076"/>
      <point x="1014" y="1000" type="curve" smooth="yes"/>
      <point x="1014" y="913"/>
      <point x="987" y="829"/>
      <point x="938" y="757" type="curve"/>
      <point x="1140" y="555" type="line"/>
      <point x="1016" y="430" type="line"/>
      <point x="813" y="633" type="line"/>
      <point x="742" y="584"/>
      <point x="659" y="558"/>
      <point x="573" y="558" type="curve" smooth="yes"/>
      <point x="497" y="558"/>
      <point x="422" y="578"/>
      <point x="357" y="619" type="curve"/>
      <point x="168" y="430" type="line"/>
      <point x="44" y="555" type="line"/>
    </contour>
    <contour>
      <point x="306" y="975" type="curve" smooth="yes"/>
      <point x="306" y="829"/>
      <point x="434" y="699"/>
      <point x="580" y="699" type="curve" smooth="yes"/>
      <point x="732" y="699"/>
      <point x="872" y="840"/>
      <point x="872" y="992" type="curve" smooth="yes"/>
      <point x="872" y="1138"/>
      <point x="744" y="1266"/>
      <point x="598" y="1266" type="curve" smooth="yes"/>
      <point x="444" y="1266"/>
      <point x="306" y="1130"/>
    </contour>
  </outline>
</glyph>
<glyph name="yen" format="1">
  <advance width="1060"/>
  <unicode hex="00A5"/>
  <outline>
    <contour>
      <point x="398" y="688" type="line"/>
      <point x="-85" y="1579" type="line"/>
      <point x="109" y="1579" type="line"/>
      <point x="529" y="788" type="line"/>
      <point x="949" y="1579" type="line"/>
      <point x="1143" y="1579" type="line"/>
      <point x="662" y="688" type="line"/>
      <point x="925" y="688" type="line"/>
      <point x="925" y="584" type="line"/>
      <point x="629" y="584" type="line"/>
      <point x="629" y="488" type="line"/>
      <point x="925" y="488" type="line"/>
      <point x="925" y="389" type="line"/>
      <point x="629" y="389" type="line"/>
      <point x="629" y="0" type="line"/>
      <point x="439" y="0" type="line"/>
      <point x="439" y="389" type="line"/>
      <point x="137" y="389" type="line"/>
      <point x="137" y="488" type="line"/>
      <point x="439" y="488" type="line"/>
      <point x="439" y="584" type="line"/>
      <point x="137" y="584" type="line"/>
      <point x="137" y="688" type="line"/>
    </contour>
  </outline>
</glyph>
<glyph name="section" format="1">
  <advance width="924"/>
  <unicode hex="00A7"/>
  <outline>
    <contour>
      <point x="468" y="600" type="curve" smooth="yes"/>
      <point x="568" y="600"/>
      <point x="707" y="624"/>
      <point x="707" y="751" type="curve" smooth="yes"/>
      <point x="707" y="889"/>
      <point x="576" y="906"/>
      <point x="468" y="906" type="curve" smooth="yes"/>
      <point x="361" y="906"/>
      <point x="233" y="886"/>
      <point x="233" y="753" type="curve" smooth="yes"/>
      <point x="233" y="623"/>
      <point x="364" y="600"/>
    </contour>
    <contour>
      <point x="89" y="20" type="curve"/>
      <point x="150" y="158" type="line"/>
      <point x="223" y="93"/>
      <point x="344" y="50"/>
      <point x="441" y="50" type="curve" smooth="yes"/>
      <point x="555" y="50"/>
      <point x="700" y="82"/>
      <point x="700" y="223" type="curve" smooth="yes"/>
      <point x="700" y="513"/>
      <point x="79" y="349"/>
      <point x="79" y="771" type="curve" smooth="yes"/>
      <point x="79" y="913"/>
      <point x="210" y="980"/>
      <point x="334" y="995" type="curve"/>
      <point x="187" y="1051"/>
      <point x="79" y="1115"/>
      <point x="79" y="1285" type="curve" smooth="yes"/>
      <point x="79" y="1487"/>
      <point x="283" y="1569"/>
      <point x="456" y="1569" type="curve" smooth="yes"/>
      <point x="552" y="1569"/>
      <point x="745" y="1516"/>
      <point x="818" y="1452" type="curve"/>
      <point x="760" y="1316" type="line"/>
      <point x="676" y="1381"/>
      <point x="573" y="1424"/>
      <point x="466" y="1424" type="curve" smooth="yes"/>
      <point x="365" y="1424"/>
      <point x="235" y="1402"/>
      <point x="235" y="1275" type="curve" smooth="yes"/>
      <point x="235" y="1062"/>
      <point x="867" y="1151"/>
      <point x="867" y="746" type="curve" smooth="yes"/>
      <point x="867" y="610"/>
      <point x="741" y="531"/>
      <point x="618" y="522" type="curve"/>
      <point x="769" y="470"/>
      <point x="869" y="386"/>
      <point x="869" y="219" type="curve" smooth="yes"/>
      <point x="869" y="-16"/>
      <point x="654" y="-96"/>
      <point x="453" y="-96" type="curve" smooth="yes"/>
      <point x="352" y="-96"/>
      <point x="168" y="-45"/>
    </contour>
  </outline>
</glyph>
<glyph name="copyright" format="1">
  <advance width="1817"/>
  <unicode hex="00A9"/>
  <outline>
    <contour>
      <point x="183" y="829" type="curve" smooth="yes"/>
      <point x="183" y="410"/>
      <point x="491" y="101"/>
      <point x="910" y="101" type="curve" smooth="yes"/>
      <point x="1329" y="101"/>
      <point x="1637" y="410"/>
      <point x="1637" y="829" type="curve" smooth="yes"/>
      <point x="1637" y="1229"/>
      <point x="1312" y="1562"/>
      <point x="910" y="1562" type="curve" smooth="yes"/>
      <point x="507" y="1562"/>
      <point x="183" y="1230"/>
    </contour>
    <contour>
      <point x="35" y="830" type="curve" smooth="yes"/>
      <point x="35" y="1308"/>
      <point x="437" y="1687"/>
      <point x="910" y="1687" type="curve" smooth="yes"/>
      <point x="1383" y="1687"/>
      <point x="1785" y="1308"/>
      <point x="1785" y="830" type="curve" smooth="yes"/>
      <point x="1785" y="344"/>
      <point x="1389" y="-23"/>
      <point x="910" y="-23" type="curve" smooth="yes"/>
      <point x="429" y="-23"/>
      <point x="35" y="342"/>
    </contour>
    <contour>
      <point x="947" y="336" type="curve" smooth="yes"/>
      <point x="614" y="336"/>
      <point x="425" y="494"/>
      <point x="425" y="831" type="curve" smooth="yes"/>
      <point x="425" y="1168"/>
      <point x="614" y="1326"/>
      <point x="947" y="1326" type="curve" smooth="yes"/>
      <point x="1045" y="1326"/>
      <point x="1141" y="1292"/>
      <point x="1227" y="1248" type="curve"/>
      <point x="1227" y="1122" type="line"/>
      <point x="1136" y="1168"/>
      <point x="1036" y="1198"/>
      <point x="933" y="1198" type="curve" smooth="yes"/>
      <point x="673" y="1198"/>
      <point x="587" y="1087"/>
      <point x="587" y="831" type="curve" smooth="yes"/>
      <point x="587" y="575"/>
      <point x="673" y="464"/>
      <point x="933" y="464" type="curve" smooth="yes"/>
      <point x="1036" y="464"/>
      <point x="1136" y="494"/>
      <point x="1227" y="540" type="curve"/>
      <point x="1227" y="414" type="line"/>
      <point x="1141" y="370"/>
      <point x="1045" y="336"/>
    </contour>
  </outline>
</glyph>
<glyph name="logicalnot" format="1">
  <advance width="1452"/>
  <unicode hex="00AC"/>
  <outline>
    <contour>
      <point x="1355" y="338" type="line"/>
      <point x="1179" y="338" type="line"/>
      <point x="1179" y="1023" type="line"/>
      <point x="1" y="1023" type="line"/>
      <point x="1" y="1174" type="line"/>
      <point x="1355" y="1174" type="line"/>
    </contour>
  </outline>
</glyph>
<glyph name="registered" format="1">
  <advance width="1233"/>
  <unicode hex="00AE"/>
  <outline>
    <contour>
      <point x="616" y="641" type="curve" smooth="yes"/>
      <point x="880" y="641"/>
      <point x="1099" y="837"/>
      <point x="1099" y="1106" type="curve" smooth="yes"/>
      <point x="1099" y="1376"/>
      <point x="881" y="1572"/>
      <point x="616" y="1572" type="curve" smooth="yes"/>
      <point x="350" y="1572"/>
      <point x="136" y="1375"/>
      <point x="136" y="1105" type="curve" smooth="yes"/>
      <point x="136" y="834"/>
      <point x="350" y="641"/>
    </contour>
    <contour>
      <point x="617" y="542" type="curve" smooth="yes"/>
      <point x="297" y="542"/>
      <point x="28" y="781"/>
      <point x="28" y="1108" type="curve" smooth="yes"/>
      <point x="28" y="1433"/>
      <point x="300" y="1674"/>
      <point x="617" y="1674" type="curve" smooth="yes"/>
      <point x="935" y="1674"/>
      <point x="1207" y="1434"/>
      <point x="1207" y="1108" type="curve" smooth="yes"/>
      <point x="1207" y="781"/>
      <point x="936" y="542"/>
    </contour>
    <contour>
      <point x="846" y="1261" type="curve" smooth="yes"/>
      <point x="846" y="1146"/>
      <point x="784" y="1111"/>
      <point x="680" y="1086" type="curve"/>
      <point x="860" y="836" type="line"/>
      <point x="826" y="823"/>
      <point x="792" y="802"/>
      <point x="760" y="785" type="curve"/>
      <point x="586" y="1068" type="line"/>
      <point x="543" y="1068" type="line"/>
      <point x="543" y="807" type="line"/>
      <point x="437" y="807" type="line"/>
      <point x="437" y="1408" type="line"/>
      <point x="557" y="1408" type="line" smooth="yes"/>
      <point x="649" y="1408"/>
      <point x="846" y="1394"/>
    </contour>
    <contour>
      <point x="594" y="1150" type="line" smooth="yes"/>
      <point x="671" y="1150"/>
      <point x="742" y="1164"/>
      <point x="742" y="1256" type="curve" smooth="yes"/>
      <point x="742" y="1334"/>
      <point x="596" y="1326"/>
      <point x="546" y="1326" type="curve"/>
      <point x="546" y="1150" type="line"/>
    </contour>
  </outline>
</glyph>
<glyph name="macron" format="1">
  <advance width="836"/>
  <unicode hex="00AF"/>
  <outline>
    <contour>
      <point x="770" y="98" type="line"/>
      <point x="88" y="98" type="line"/>
      <point x="88" y="215" type="line"/>
      <point x="770" y="215" type="line"/>
    </contour>
  </outline>
</glyph>
<glyph name="degree" format="1">
  <advance width="565"/>
  <unicode hex="00B0"/>
  <outline>
    <contour>
      <point x="287" y="1139" type="curve" smooth="yes"/>
      <point x="424" y="1139"/>
      <point x="523" y="1035"/>
      <point x="523" y="899" type="curve" smooth="yes"/>
      <point x="523" y="762"/>
      <point x="425" y="660"/>
      <point x="287" y="660" type="curve" smooth="yes"/>
      <point x="149" y="660"/>
      <point x="43" y="759"/>
      <point x="43" y="899" type="curve" smooth="yes"/>
      <point x="43" y="1039"/>
      <point x="148" y="1139"/>
    </contour>
    <contour>
      <point x="285" y="1048" type="curve" smooth="yes"/>
      <point x="202" y="1048"/>
      <point x="140" y="980"/>
      <point x="140" y="899" type="curve" smooth="yes"/>
      <point x="140" y="819"/>
      <point x="204" y="750"/>
      <point x="285" y="750" type="curve" smooth="yes"/>
      <point x="369" y="750"/>
      <point x="426" y="817"/>
      <point x="426" y="899" type="curve" smooth="yes"/>
      <point x="426" y="981"/>
      <point x="369" y="1048"/>
    </contour>
  </outline>
</glyph>
<glyph name="plusminus" format="1">
  <advance width="852"/>
  <unicode hex="00B1"/>
  <outline>
    <contour>
      <point x="786" y="-55" type="line"/>
      <point x="85" y="-55" type="line"/>
      <point x="85" y="88" type="line"/>
      <point x="786" y="88" type="line"/>
    </contour>
    <contour>
      <point x="819" y="518" type="line"/>
      <point x="505" y="518" type="line"/>
      <point x="505" y="174" type="line"/>
      <point x="364" y="174" type="line"/>
      <point x="364" y="518" type="line"/>
      <point x="51" y="518" type="line"/>
      <point x="51" y="651" type="line"/>
      <point x="364" y="651" type="line"/>
      <point x="364" y="995" type="line"/>
      <point x="505" y="995" type="line"/>
      <point x="505" y="651" type="line"/>
      <point x="819" y="651" type="line"/>
    </contour>
  </outline>
</glyph>
<glyph name="uni00B2" format="1">
  <advance width="777"/>
  <unicode hex="00B2"/>
  <outline>
    <contour>
      <point x="283" y="820" type="curve"/>
      <point x="689" y="820" type="line"/>
      <point x="689" y="668" type="line"/>
      <point x="51" y="668" type="line"/>
      <point x="51" y="805" type="line"/>
      <point x="151" y="894"/>
      <point x="545" y="1177"/>
      <point x="545" y="1354" type="curve" smooth="yes"/>
      <point x="545" y="1460"/>
      <point x="446" y="1495"/>
      <point x="356" y="1495" type="curve" smooth="yes"/>
      <point x="260" y="1495"/>
      <point x="160" y="1468"/>
      <point x="68" y="1443" type="curve"/>
      <point x="68" y="1588" type="line"/>
      <point x="165" y="1625"/>
      <point x="271" y="1638"/>
      <point x="374" y="1638" type="curve" smooth="yes"/>
      <point x="549" y="1638"/>
      <point x="717" y="1551"/>
      <point x="717" y="1357" type="curve" smooth="yes"/>
      <point x="717" y="1129"/>
      <point x="434" y="948"/>
    </contour>
  </outline>
</glyph>
<glyph name="uni00B3" format="1">
  <advance width="797"/>
  <unicode hex="00B3"/>
  <outline>
    <contour>
      <point x="559" y="1383" type="curve" smooth="yes"/>
      <point x="559" y="1511"/>
      <point x="442" y="1541"/>
      <point x="335" y="1541" type="curve" smooth="yes"/>
      <point x="255" y="1541"/>
      <point x="173" y="1520"/>
      <point x="101" y="1484" type="curve"/>
      <point x="54" y="1611" type="line"/>
      <point x="137" y="1652"/>
      <point x="248" y="1677"/>
      <point x="340" y="1677" type="curve" smooth="yes"/>
      <point x="517" y="1677"/>
      <point x="713" y="1601"/>
      <point x="713" y="1394" type="curve" smooth="yes"/>
      <point x="713" y="1263"/>
      <point x="602" y="1143"/>
      <point x="468" y="1142" type="curve"/>
      <point x="627" y="1111"/>
      <point x="744" y="1006"/>
      <point x="744" y="835" type="curve" smooth="yes"/>
      <point x="744" y="628"/>
      <point x="533" y="540"/>
      <point x="355" y="540" type="curve" smooth="yes"/>
      <point x="257" y="540"/>
      <point x="110" y="564"/>
      <point x="27" y="618" type="curve"/>
      <point x="78" y="745" type="line"/>
      <point x="165" y="701"/>
      <point x="260" y="672"/>
      <point x="358" y="672" type="curve" smooth="yes"/>
      <point x="466" y="672"/>
      <point x="578" y="733"/>
      <point x="578" y="853" type="curve" smooth="yes"/>
      <point x="578" y="1005"/>
      <point x="447" y="1057"/>
      <point x="316" y="1072" type="curve"/>
      <point x="316" y="1207" type="line"/>
      <point x="423" y="1207"/>
      <point x="559" y="1255"/>
    </contour>
  </outline>
</glyph>
<glyph name="acute" format="1">
  <advance width="430"/>
  <unicode hex="00B4"/>
  <outline>
    <contour>
      <point x="96" y="328" type="line"/>
      <point x="39" y="354" type="line"/>
      <point x="349" y="860" type="line"/>
      <point x="510" y="759" type="line"/>
    </contour>
  </outline>
</glyph>
<glyph name="paragraph" format="1">
  <advance width="1086"/>
  <unicode hex="00B6"/>
  <outline>
    <contour>
      <point x="501" y="1578" type="curve" smooth="yes"/>
      <point x="967" y="1578" type="line"/>
      <point x="967" y="0" type="line"/>
      <point x="781" y="0" type="line"/>
      <point x="781" y="1428" type="line"/>
      <point x="646" y="1428" type="line"/>
      <point x="646" y="0" type="line"/>
      <point x="456" y="0" type="line"/>
      <point x="456" y="905" type="line"/>
      <point x="226" y="905"/>
      <point x="-33" y="971"/>
      <point x="-33" y="1250" type="curve" smooth="yes"/>
      <point x="-33" y="1551"/>
      <point x="268" y="1578"/>
    </contour>
  </outline>
</glyph>
<glyph name="cedilla" format="1">
  <advance width="502"/>
  <unicode hex="00B8"/>
  <outline>
    <contour>
      <point x="67" y="-540" type="curve"/>
      <point x="67" y="-423" type="line"/>
      <point x="107" y="-437"/>
      <point x="192" y="-464"/>
      <point x="231" y="-464" type="curve" smooth="yes"/>
      <point x="333" y="-464"/>
      <point x="370" y="-437"/>
      <point x="370" y="-328" type="curve" smooth="yes"/>
      <point x="370" y="-189"/>
      <point x="222" y="-186"/>
      <point x="117" y="-186" type="curve"/>
      <point x="117" y="76" type="line"/>
      <point x="238" y="76" type="line"/>
      <point x="238" y="-98" type="line"/>
      <point x="405" y="-98"/>
      <point x="503" y="-166"/>
      <point x="503" y="-342" type="curve" smooth="yes"/>
      <point x="503" y="-506"/>
      <point x="409" y="-578"/>
      <point x="251" y="-578" type="curve" smooth="yes"/>
      <point x="188" y="-578"/>
      <point x="126" y="-560"/>
    </contour>
  </outline>
</glyph>
<glyph name="ordmasculine" format="1">
  <advance width="956"/>
  <unicode hex="00BA"/>
  <outline>
    <contour>
      <point x="55" y="1152" type="curve" smooth="yes"/>
      <point x="55" y="1417"/>
      <point x="193" y="1638"/>
      <point x="479" y="1638" type="curve" smooth="yes"/>
      <point x="766" y="1638"/>
      <point x="904" y="1417"/>
      <point x="904" y="1152" type="curve" smooth="yes"/>
      <point x="904" y="885"/>
      <point x="767" y="670"/>
      <point x="479" y="670" type="curve" smooth="yes"/>
      <point x="192" y="670"/>
      <point x="55" y="886"/>
    </contour>
    <contour>
      <point x="212" y="1154" type="curve" smooth="yes"/>
      <point x="212" y="977"/>
      <point x="271" y="797"/>
      <point x="479" y="797" type="curve" smooth="yes"/>
      <point x="688" y="797"/>
      <point x="746" y="976"/>
      <point x="746" y="1154" type="curve" smooth="yes"/>
      <point x="746" y="1330"/>
      <point x="686" y="1512"/>
      <point x="479" y="1512" type="curve" smooth="yes"/>
      <point x="271" y="1512"/>
      <point x="212" y="1331"/>
    </contour>
    <contour>
      <point x="141" y="575" type="line"/>
      <point x="825" y="575" type="line"/>
      <point x="825" y="446" type="line"/>
      <point x="141" y="446" type="line"/>
    </contour>
  </outline>
</glyph>
<glyph name="onequarter" format="1">
  <advance width="1442"/>
  <unicode hex="00BC"/>
  <outline>
    <contour>
      <point x="20" y="-30" type="line"/>
      <point x="1059" y="1365" type="line"/>
      <point x="1181" y="1272" type="line"/>
      <point x="140" y="-123" type="line"/>
    </contour>
    <contour>
      <point x="158" y="568" type="line"/>
      <point x="158" y="1413" type="line"/>
      <point x="-12" y="1341" type="line"/>
      <point x="-50" y="1434" type="line"/>
      <point x="188" y="1529" type="line"/>
      <point x="318" y="1503" type="line"/>
      <point x="318" y="568" type="line"/>
    </contour>
    <contour>
      <point x="784" y="144" type="curve"/>
      <point x="1172" y="144" type="line"/>
      <point x="1172" y="703" type="line"/>
      <point x="1045" y="515"/>
      <point x="916" y="329"/>
    </contour>
    <contour>
      <point x="1189" y="946" type="line"/>
      <point x="1317" y="915" type="line"/>
      <point x="1317" y="145" type="line"/>
      <point x="1468" y="145" type="line"/>
      <point x="1468" y="34" type="line"/>
      <point x="1317" y="34" type="line"/>
      <point x="1317" y="-227" type="line"/>
      <point x="1172" y="-250" type="line"/>
      <point x="1172" y="34" type="line"/>
      <point x="647" y="34" type="line"/>
      <point x="625" y="144" type="line"/>
    </contour>
  </outline>
</glyph>
<glyph name="questiondown" format="1">
  <advance width="862"/>
  <unicode hex="00BF"/>
  <outline>
    <contour>
      <point x="650" y="1505" type="curve" smooth="yes"/>
      <point x="710" y="1505"/>
      <point x="754" y="1453"/>
      <point x="754" y="1395" type="curve" smooth="yes"/>
      <point x="754" y="1338"/>
      <point x="700" y="1296"/>
      <point x="646" y="1296" type="curve" smooth="yes"/>
      <point x="590" y="1296"/>
      <point x="545" y="1346"/>
      <point x="545" y="1401" type="curve" smooth="yes"/>
      <point x="545" y="1458"/>
      <point x="593" y="1505"/>
    </contour>
    <contour>
      <point x="551" y="790" type="curve"/>
      <point x="551" y="1173" type="line"/>
      <point x="731" y="1173" type="line"/>
      <point x="731" y="688" type="line"/>
      <point x="541" y="622"/>
      <point x="208" y="518"/>
      <point x="208" y="268" type="curve" smooth="yes"/>
      <point x="208" y="71"/>
      <point x="354" y="47"/>
      <point x="519" y="47" type="curve" smooth="yes"/>
      <point x="622" y="47"/>
      <point x="758" y="77"/>
      <point x="847" y="133" type="curve"/>
      <point x="906" y="-10" type="line"/>
      <point x="796" y="-77"/>
      <point x="626" y="-114"/>
      <point x="500" y="-114" type="curve" smooth="yes"/>
      <point x="259" y="-114"/>
      <point x="17" y="-34"/>
      <point x="17" y="249" type="curve" smooth="yes"/>
      <point x="17" y="573"/>
      <point x="289" y="697"/>
    </contour>
  </outline>
</glyph>
<glyph name="AE" format="1">
  <advance width="1805"/>
  <unicode hex="00C6"/>
  <outline>
    <contour>
      <point x="928" y="1459" type="line"/>
      <point x="438" y="493" type="line"/>
      <point x="928" y="493" type="line"/>
    </contour>
    <contour>
      <point x="1769" y="0" type="line"/>
      <point x="930" y="0" type="line"/>
      <point x="930" y="371" type="line"/>
      <point x="378" y="371" type="line"/>
      <point x="186" y="0" type="line"/>
      <point x="-23" y="0" type="line"/>
      <point x="803" y="1579" type="line"/>
      <point x="1741" y="1579" type="line"/>
      <point x="1741" y="1436" type="line"/>
      <point x="1093" y="1436" type="line"/>
      <point x="1093" y="891" type="line"/>
      <point x="1698" y="891" type="line"/>
      <point x="1698" y="764" type="line"/>
      <point x="1095" y="764" type="line"/>
      <point x="1095" y="143" type="line"/>
      <point x="1769" y="143" type="line"/>
    </contour>
  </outline>
</glyph>
<glyph name="multiply" format="1">
  <advance width="901"/>
  <unicode hex="00D7"/>
  <outline>
    <contour>
      <point x="24" y="863" type="line"/>
      <point x="126" y="965" type="line"/>
      <point x="443" y="648" type="line"/>
      <point x="760" y="965" type="line"/>
      <point x="862" y="863" type="line"/>
      <point x="545" y="546" type="line"/>
      <point x="862" y="229" type="line"/>
      <point x="760" y="127" type="line"/>
      <point x="443" y="444" type="line"/>
      <point x="126" y="127" type="line"/>
      <point x="24" y="229" type="line"/>
      <point x="341" y="546" type="line"/>
    </contour>
  </outline>
</glyph>
<glyph name="germandbls" format="1">
  <advance width="1303"/>
  <unicode hex="00DF"/>
  <outline>
    <contour>
      <point x="901" y="1200" type="curve" smooth="yes"/>
      <point x="901" y="1399"/>
      <point x="748" y="1436"/>
      <point x="580" y="1436" type="curve" smooth="yes"/>
      <point x="306" y="1436"/>
      <point x="305" y="1240"/>
      <point x="305" y="1018" type="curve" smooth="yes"/>
      <point x="305" y="16" type="line"/>
      <point x="111" y="-6" type="line"/>
      <point x="110" y="1046" type="line" smooth="yes"/>
      <point x="110" y="1381"/>
      <point x="221" y="1579"/>
      <point x="580" y="1579" type="curve" smooth="yes"/>
      <point x="856" y="1579"/>
      <point x="1073" y="1484"/>
      <point x="1073" y="1176" type="curve" smooth="yes"/>
      <point x="1073" y="1015"/>
      <point x="1002" y="864"/>
      <point x="827" y="844" type="curve"/>
      <point x="1100" y="844"/>
      <point x="1255" y="661"/>
      <point x="1255" y="395" type="curve" smooth="yes"/>
      <point x="1255" y="-37"/>
      <point x="831" y="-129"/>
      <point x="481" y="-129" type="curve"/>
      <point x="481" y="27" type="line"/>
      <point x="797" y="27"/>
      <point x="1073" y="62"/>
      <point x="1073" y="432" type="curve" smooth="yes"/>
      <point x="1073" y="759"/>
      <point x="690" y="774"/>
      <point x="449" y="774" type="curve"/>
      <point x="449" y="905" type="line"/>
      <point x="688" y="894"/>
      <point x="901" y="914"/>
    </contour>
  </outline>
</glyph>
<glyph name="ae" format="1">
  <advance width="1802"/>
  <unicode hex="00E6"/>
  <outline>
    <contour>
      <point x="1576" y="717" type="line" smooth="yes"/>
      <point x="1576" y="902"/>
      <point x="1506" y="1057"/>
      <point x="1302" y="1057" type="curve" smooth="yes"/>
      <point x="1075" y="1057"/>
      <point x="976" y="896"/>
      <point x="976" y="682" type="curve"/>
      <point x="1576" y="682" type="line"/>
    </contour>
    <contour>
      <point x="477" y="119" type="curve" smooth="yes"/>
      <point x="596" y="119"/>
      <point x="702" y="193"/>
      <point x="786" y="271" type="curve"/>
      <point x="786" y="569" type="line"/>
      <point x="708" y="582"/>
      <point x="630" y="590"/>
      <point x="551" y="590" type="curve" smooth="yes"/>
      <point x="379" y="590"/>
      <point x="229" y="556"/>
      <point x="229" y="356" type="curve" smooth="yes"/>
      <point x="229" y="183"/>
      <point x="309" y="119"/>
    </contour>
    <contour>
      <point x="786" y="665" type="curve"/>
      <point x="786" y="713" type="line" smooth="yes"/>
      <point x="786" y="924"/>
      <point x="775" y="1047"/>
      <point x="534" y="1047" type="curve" smooth="yes"/>
      <point x="424" y="1047"/>
      <point x="261" y="1001"/>
      <point x="171" y="935" type="curve"/>
      <point x="104" y="1057" type="line"/>
      <point x="196" y="1135"/>
      <point x="405" y="1190"/>
      <point x="524" y="1190" type="curve" smooth="yes"/>
      <point x="697" y="1190"/>
      <point x="851" y="1154"/>
      <point x="906" y="970" type="curve"/>
      <point x="979" y="1121"/>
      <point x="1140" y="1190"/>
      <point x="1301" y="1190" type="curve" smooth="yes"/>
      <point x="1608" y="1190"/>
      <point x="1744" y="958"/>
      <point x="1744" y="676" type="curve" smooth="yes"/>
      <point x="1744" y="640"/>
      <point x="1741" y="603"/>
      <point x="1736" y="567" type="curve"/>
      <point x="976" y="567" type="line"/>
      <point x="976" y="322"/>
      <point x="1041" y="127"/>
      <point x="1322" y="127" type="curve" smooth="yes"/>
      <point x="1436" y="127"/>
      <point x="1542" y="170"/>
      <point x="1628" y="244" type="curve"/>
      <point x="1690" y="99" type="line"/>
      <point x="1596" y="30"/>
      <point x="1427" y="-23"/>
      <point x="1310" y="-23" type="curve" smooth="yes"/>
      <point x="1129" y="-23"/>
      <point x="969" y="45"/>
      <point x="877" y="207" type="curve"/>
      <point x="773" y="68"/>
      <point x="604" y="-23"/>
      <point x="430" y="-23" type="curve" smooth="yes"/>
      <point x="191" y="-23"/>
      <point x="38" y="95"/>
      <point x="38" y="343" type="curve" smooth="yes"/>
      <point x="38" y="603"/>
      <point x="246" y="715"/>
      <point x="482" y="715" type="curve" smooth="yes"/>
      <point x="568" y="715"/>
      <point x="706" y="698"/>
    </contour>
  </outline>
</glyph>
<glyph name="eth" format="1">
  <advance width="1131"/>
  <unicode hex="00F0"/>
  <outline>
    <contour>
      <point x="867" y="666" type="curve" smooth="yes"/>
      <point x="867" y="869"/>
      <point x="759" y="1047"/>
      <point x="540" y="1047" type="curve" smooth="yes"/>
      <point x="265" y="1047"/>
      <point x="216" y="822"/>
      <point x="216" y="587" type="curve" smooth="yes"/>
      <point x="216" y="384"/>
      <point x="258" y="123"/>
      <point x="514" y="123" type="curve" smooth="yes"/>
      <point x="829" y="123"/>
      <point x="867" y="412"/>
    </contour>
    <contour>
      <point x="1051" y="690" type="curve" smooth="yes"/>
      <point x="1051" y="324"/>
      <point x="944" y="-20"/>
      <point x="518" y="-20" type="curve" smooth="yes"/>
      <point x="168" y="-20"/>
      <point x="34" y="275"/>
      <point x="34" y="584" type="curve" smooth="yes"/>
      <point x="34" y="870"/>
      <point x="164" y="1190"/>
      <point x="496" y="1190" type="curve" smooth="yes"/>
      <point x="622" y="1190"/>
      <point x="780" y="1129"/>
      <point x="861" y="1028" type="curve"/>
      <point x="818" y="1158"/>
      <point x="741" y="1277"/>
      <point x="652" y="1380" type="curve"/>
      <point x="417" y="1311" type="line"/>
      <point x="375" y="1401" type="line"/>
      <point x="578" y="1461" type="line"/>
      <point x="511" y="1528"/>
      <point x="438" y="1590"/>
      <point x="357" y="1641" type="curve"/>
      <point x="441" y="1743" type="line"/>
      <point x="556" y="1679"/>
      <point x="644" y="1599"/>
      <point x="737" y="1508" type="curve"/>
      <point x="1023" y="1593" type="line"/>
      <point x="1065" y="1503" type="line"/>
      <point x="805" y="1426" type="line"/>
      <point x="971" y="1200"/>
      <point x="1051" y="973"/>
    </contour>
  </outline>
</glyph>
<glyph name="thorn" format="1">
  <advance width="1193"/>
  <unicode hex="00FE"/>
  <outline>
    <contour>
      <point x="955" y="543" type="curve" smooth="yes"/>
      <point x="955" y="735"/>
      <point x="924" y="1047"/>
      <point x="668" y="1047" type="curve" smooth="yes"/>
      <point x="545" y="1047"/>
      <point x="418" y="976"/>
      <point x="332" y="890" type="curve"/>
      <point x="316" y="244" type="line"/>
      <point x="408" y="165"/>
      <point x="557" y="123"/>
      <point x="676" y="123" type="curve" smooth="yes"/>
      <point x="893" y="123"/>
      <point x="955" y="366"/>
    </contour>
    <contour>
      <point x="1137" y="584" type="curve" smooth="yes"/>
      <point x="1137" y="291"/>
      <point x="1005" y="-20"/>
      <point x="668" y="-20" type="curve" smooth="yes"/>
      <point x="537" y="-20"/>
      <point x="395" y="10"/>
      <point x="309" y="117" type="curve"/>
      <point x="309" y="-465" type="line"/>
      <point x="123" y="-487" type="line"/>
      <point x="123" y="1565" type="line"/>
      <point x="307" y="1565" type="line"/>
      <point x="307" y="1004" type="line"/>
      <point x="393" y="1113"/>
      <point x="527" y="1190"/>
      <point x="668" y="1190" type="curve" smooth="yes"/>
      <point x="1009" y="1190"/>
      <point x="1137" y="880"/>
    </contour>
  </outline>
</glyph>
<glyph name="dcroat" format="1">
  <advance width="1253"/>
  <unicode hex="0111"/>
  <outline>
    <contour>
      <point x="113" y="584" type="curve" smooth="yes"/>
      <point x="113" y="870"/>
      <point x="243" y="1190"/>
      <point x="575" y="1190" type="curve" smooth="yes"/>
      <point x="702" y="1190"/>
      <point x="859" y="1129"/>
      <point x="940" y="1028" type="curve"/>
      <point x="940" y="1317" type="line"/>
      <point x="571" y="1317" type="line"/>
      <point x="571" y="1434" type="line"/>
      <point x="940" y="1434" type="line"/>
      <point x="940" y="1614" type="line"/>
      <point x="1130" y="1579" type="line"/>
      <point x="1130" y="1434" type="line"/>
      <point x="1253" y="1434" type="line"/>
      <point x="1253" y="1317" type="line"/>
      <point x="1130" y="1317" type="line"/>
      <point x="1130" y="0" type="line"/>
      <point x="989" y="0" type="line"/>
      <point x="961" y="179" type="line"/>
      <point x="878" y="71"/>
      <point x="737" y="-20"/>
      <point x="597" y="-20" type="curve" smooth="yes"/>
      <point x="247" y="-20"/>
      <point x="113" y="275"/>
    </contour>
    <contour>
      <point x="295" y="587" type="curve" smooth="yes"/>
      <point x="295" y="381"/>
      <point x="337" y="117"/>
      <point x="593" y="117" type="curve" smooth="yes"/>
      <point x="715" y="117"/>
      <point x="857" y="181"/>
      <point x="940" y="275" type="curve"/>
      <point x="940" y="903" type="line"/>
      <point x="839" y="980"/>
      <point x="717" y="1047"/>
      <point x="587" y="1047" type="curve" smooth="yes"/>
      <point x="337" y="1047"/>
      <point x="295" y="787"/>
    </contour>
  </outline>
</glyph>
<glyph name="gcedilla" format="1">
  <advance width="1225"/>
  <unicode hex="0123"/>
  <outline>
    <contour>
      <point x="248" y="107" type="curve"/>
      <point x="179" y="154"/>
      <point x="129" y="235"/>
      <point x="129" y="320" type="curve" smooth="yes"/>
      <point x="129" y="424"/>
      <point x="215" y="506"/>
      <point x="315" y="521" type="curve"/>
      <point x="186" y="578"/>
      <point x="118" y="718"/>
      <point x="118" y="854" type="curve" smooth="yes"/>
      <point x="118" y="1089"/>
      <point x="356" y="1190"/>
      <point x="559" y="1190" type="curve" smooth="yes"/>
      <point x="656" y="1190"/>
      <point x="760" y="1175"/>
      <point x="839" y="1114" type="curve"/>
      <point x="938" y="1165"/>
      <point x="1035" y="1170"/>
      <point x="1144" y="1171" type="curve"/>
      <point x="1144" y="1026" type="line"/>
      <point x="906" y="1026" type="line"/>
      <point x="979" y="983"/>
      <point x="989" y="888"/>
      <point x="989" y="812" type="curve" smooth="yes"/>
      <point x="989" y="296"/>
      <point x="268" y="511"/>
      <point x="268" y="322" type="curve" smooth="yes"/>
      <point x="268" y="284"/>
      <point x="278" y="246"/>
      <point x="289" y="210" type="curve"/>
      <point x="547" y="210"/>
      <point x="1116" y="293"/>
      <point x="1116" y="-106" type="curve" smooth="yes"/>
      <point x="1116" y="-372"/>
      <point x="799" y="-427"/>
      <point x="592" y="-427" type="curve" smooth="yes"/>
      <point x="378" y="-427"/>
      <point x="82" y="-407"/>
      <point x="82" y="-125" type="curve" smooth="yes"/>
      <point x="82" y="-12"/>
      <point x="149" y="62"/>
    </contour>
    <contour>
      <point x="279" y="845" type="curve" smooth="yes"/>
      <point x="279" y="729"/>
      <point x="353" y="599"/>
      <point x="462" y="552" type="curve"/>
      <point x="685" y="580"/>
      <point x="822" y="593"/>
      <point x="822" y="860" type="curve" smooth="yes"/>
      <point x="822" y="1031"/>
      <point x="698" y="1058"/>
      <point x="555" y="1058" type="curve" smooth="yes"/>
      <point x="414" y="1058"/>
      <point x="279" y="1009"/>
    </contour>
    <contour>
      <point x="240" y="-110" type="curve" smooth="yes"/>
      <point x="240" y="-285"/>
      <point x="447" y="-277"/>
      <point x="572" y="-277" type="curve" smooth="yes"/>
      <point x="691" y="-277"/>
      <point x="954" y="-285"/>
      <point x="954" y="-111" type="curve" smooth="yes"/>
      <point x="954" y="65"/>
      <point x="796" y="76"/>
      <point x="659" y="76" type="curve" smooth="yes"/>
      <point x="337" y="76" type="line"/>
      <point x="274" y="37"/>
      <point x="240" y="-37"/>
    </contour>
  </outline>
</glyph>
<glyph name="Hbar" format="1">
  <advance width="1467"/>
  <unicode hex="0126"/>
  <outline>
    <contour>
      <point x="1149" y="0" type="line"/>
      <point x="1149" y="764" type="line"/>
      <point x="317" y="764" type="line"/>
      <point x="317" y="0" type="line"/>
      <point x="123" y="0" type="line"/>
      <point x="123" y="1579" type="line"/>
      <point x="317" y="1579" type="line"/>
      <point x="317" y="879" type="line"/>
      <point x="1149" y="879" type="line"/>
      <point x="1149" y="1579" type="line"/>
      <point x="1343" y="1579" type="line"/>
      <point x="1343" y="0" type="line"/>
    </contour>
  </outline>
</glyph>
<glyph name="hbar" format="1">
  <advance width="1229"/>
  <unicode hex="0127"/>
  <outline>
    <contour>
      <point x="688" y="1047" type="curve" smooth="yes"/>
      <point x="564" y="1047"/>
      <point x="399" y="979"/>
      <point x="313" y="888" type="curve"/>
      <point x="313" y="0" type="line"/>
      <point x="123" y="0" type="line"/>
      <point x="123" y="1357" type="line"/>
      <point x="0" y="1357" type="line"/>
      <point x="0" y="1474" type="line"/>
      <point x="123" y="1474" type="line"/>
      <point x="123" y="1579" type="line"/>
      <point x="313" y="1616" type="line"/>
      <point x="313" y="1474" type="line"/>
      <point x="682" y="1474" type="line"/>
      <point x="682" y="1357" type="line"/>
      <point x="313" y="1357" type="line"/>
      <point x="313" y="1011" type="line"/>
      <point x="419" y="1108"/>
      <point x="539" y="1190"/>
      <point x="702" y="1190" type="curve" smooth="yes"/>
      <point x="995" y="1190"/>
      <point x="1110" y="1018"/>
      <point x="1110" y="727" type="curve" smooth="yes"/>
      <point x="1110" y="0" type="line"/>
      <point x="920" y="0" type="line"/>
      <point x="920" y="727" type="line" smooth="yes"/>
      <point x="920" y="892"/>
      <point x="882" y="1047"/>
    </contour>
  </outline>
</glyph>
<glyph name="IJ" format="1">
  <advance width="1494"/>
  <unicode hex="0132"/>
  <outline>
    <contour>
      <point x="887" y="-90" type="curve"/>
      <point x="840" y="37" type="line"/>
      <point x="1148" y="83"/>
      <point x="1162" y="203"/>
      <point x="1162" y="479" type="curve" smooth="yes"/>
      <point x="1162" y="1579" type="line"/>
      <point x="1354" y="1579" type="line"/>
      <point x="1354" y="514" type="line" smooth="yes"/>
      <point x="1354" y="168"/>
      <point x="1295" y="-90"/>
    </contour>
    <contour>
      <point x="76" y="112" type="line"/>
      <point x="280" y="112" type="line"/>
      <point x="280" y="1461" type="line"/>
      <point x="76" y="1461" type="line"/>
      <point x="76" y="1579" type="line"/>
      <point x="669" y="1579" type="line"/>
      <point x="669" y="1461" type="line"/>
      <point x="463" y="1461" type="line"/>
      <point x="463" y="112" type="line"/>
      <point x="669" y="112" type="line"/>
      <point x="669" y="0" type="line"/>
      <point x="76" y="0" type="line"/>
    </contour>
  </outline>
</glyph>
<glyph name="ij" format="1">
  <advance width="1010"/>
  <unicode hex="0133"/>
  <outline>
    <contour>
      <point x="776" y="1577" type="curve" smooth="yes"/>
      <point x="841" y="1577"/>
      <point x="884" y="1524"/>
      <point x="884" y="1462" type="curve" smooth="yes"/>
      <point x="884" y="1400"/>
      <point x="841" y="1347"/>
      <point x="776" y="1347" type="curve" smooth="yes"/>
      <point x="712" y="1347"/>
      <point x="664" y="1399"/>
      <point x="664" y="1462" type="curve" smooth="yes"/>
      <point x="664" y="1524"/>
      <point x="713" y="1577"/>
    </contour>
    <contour>
      <point x="494" y="-258" type="line"/>
      <point x="668" y="-147"/>
      <point x="682" y="-14"/>
      <point x="682" y="176" type="curve" smooth="yes"/>
      <point x="682" y="1169" type="line"/>
      <point x="872" y="1169" type="line"/>
      <point x="872" y="154" type="line" smooth="yes"/>
      <point x="872" y="-68"/>
      <point x="779" y="-315"/>
      <point x="541" y="-373" type="curve"/>
    </contour>
    <contour>
      <point x="253" y="1577" type="curve" smooth="yes"/>
      <point x="318" y="1577"/>
      <point x="361" y="1524"/>
      <point x="361" y="1462" type="curve" smooth="yes"/>
      <point x="361" y="1400"/>
      <point x="318" y="1347"/>
      <point x="253" y="1347" type="curve" smooth="yes"/>
      <point x="189" y="1347"/>
      <point x="141" y="1399"/>
      <point x="141" y="1462" type="curve" smooth="yes"/>
      <point x="141" y="1524"/>
      <point x="190" y="1577"/>
    </contour>
    <contour>
      <point x="340" y="0" type="line"/>
      <point x="158" y="0" type="line"/>
      <point x="158" y="1169" type="line"/>
      <point x="340" y="1169" type="line"/>
    </contour>
  </outline>
</glyph>
<glyph name="OE" format="1">
  <advance width="2247"/>
  <unicode hex="0152"/>
  <outline>
    <contour>
      <point x="1224" y="0" type="line"/>
      <point x="1224" y="149" type="line"/>
      <point x="1130" y="31"/>
      <point x="985" y="-41"/>
      <point x="768" y="-41" type="curve" smooth="yes"/>
      <point x="270" y="-41"/>
      <point x="114" y="335"/>
      <point x="114" y="784" type="curve" smooth="yes"/>
      <point x="114" y="1214"/>
      <point x="269" y="1610"/>
      <point x="754" y="1610" type="curve" smooth="yes"/>
      <point x="979" y="1610"/>
      <point x="1128" y="1538"/>
      <point x="1224" y="1418" type="curve"/>
      <point x="1224" y="1579" type="line"/>
      <point x="2194" y="1579" type="line"/>
      <point x="2194" y="1436" type="line"/>
      <point x="1418" y="1436" type="line"/>
      <point x="1418" y="891" type="line"/>
      <point x="2096" y="891" type="line"/>
      <point x="2096" y="776" type="line"/>
      <point x="1418" y="776" type="line"/>
      <point x="1418" y="143" type="line"/>
      <point x="2207" y="143" type="line"/>
      <point x="2207" y="0" type="line"/>
    </contour>
    <contour>
      <point x="779" y="111" type="curve" smooth="yes"/>
      <point x="1160" y="111"/>
      <point x="1224" y="480"/>
      <point x="1224" y="784" type="curve" smooth="yes"/>
      <point x="1224" y="1103"/>
      <point x="1160" y="1458"/>
      <point x="770" y="1458" type="curve" smooth="yes"/>
      <point x="377" y="1458"/>
      <point x="314" y="1101"/>
      <point x="314" y="784" type="curve" smooth="yes"/>
      <point x="314" y="458"/>
      <point x="385" y="111"/>
    </contour>
  </outline>
</glyph>
<glyph name="florin" format="1">
  <advance width="898"/>
  <unicode hex="0192"/>
  <outline>
    <contour>
      <point x="713" y="1516" type="curve" smooth="yes"/>
      <point x="566" y="1516"/>
      <point x="533" y="1422"/>
      <point x="521" y="1307" type="curve" smooth="yes"/>
      <point x="515" y="1253"/>
      <point x="514" y="1195"/>
      <point x="508" y="1139" type="curve"/>
      <point x="856" y="1139" type="line"/>
      <point x="845" y="1034" type="line"/>
      <point x="497" y="1034" type="line"/>
      <point x="399" y="210" type="line" smooth="yes"/>
      <point x="360" y="-119"/>
      <point x="312" y="-340"/>
      <point x="-20" y="-340" type="curve" smooth="yes"/>
      <point x="-91" y="-340"/>
      <point x="-170" y="-301"/>
      <point x="-222" y="-258" type="curve"/>
      <point x="-146" y="-133" type="line"/>
      <point x="-81" y="-168"/>
      <point x="-30" y="-183"/>
      <point x="10" y="-183" type="curve" smooth="yes"/>
      <point x="162" y="-183"/>
      <point x="179" y="-87"/>
      <point x="203" y="138" type="curve" smooth="yes"/>
      <point x="307" y="1034" type="line"/>
      <point x="112" y="1034" type="line"/>
      <point x="123" y="1139" type="line"/>
      <point x="318" y="1139" type="line"/>
      <point x="346" y="1406"/>
      <point x="400" y="1659"/>
      <point x="704" y="1659" type="curve" smooth="yes"/>
      <point x="785" y="1659"/>
      <point x="876" y="1615"/>
      <point x="936" y="1567" type="curve"/>
      <point x="860" y="1442" type="line"/>
      <point x="822" y="1480"/>
      <point x="772" y="1516"/>
    </contour>
  </outline>
</glyph>
<glyph name="caron" format="1">
  <advance width="877"/>
  <unicode hex="02C7"/>
  <outline>
    <contour>
      <point x="438" y="577" type="line"/>
      <point x="660" y="964" type="line"/>
      <point x="778" y="886" type="line"/>
      <point x="486" y="432" type="line"/>
      <point x="390" y="432" type="line"/>
      <point x="98" y="886" type="line"/>
      <point x="216" y="964" type="line"/>
    </contour>
  </outline>
</glyph>
<glyph name="dotaccent" format="1">
  <advance width="456"/>
  <unicode hex="02D9"/>
  <outline>
    <contour>
      <point x="230" y="213" type="curve" smooth="yes"/>
      <point x="295" y="213"/>
      <point x="338" y="160"/>
      <point x="338" y="98" type="curve" smooth="yes"/>
      <point x="338" y="36"/>
      <point x="295" y="-17"/>
      <point x="230" y="-17" type="curve" smooth="yes"/>
      <point x="166" y="-17"/>
      <point x="118" y="35"/>
      <point x="118" y="98" type="curve" smooth="yes"/>
      <point x="118" y="160"/>
      <point x="167" y="213"/>
    </contour>
  </outline>
</glyph>
<glyph name="ogonek" format="1">
  <advance width="502"/>
  <unicode hex="02DB"/>
  <outline>
    <contour>
      <point x="503" y="-540" type="line"/>
      <point x="444" y="-560"/>
      <point x="382" y="-578"/>
      <point x="319" y="-578" type="curve" smooth="yes"/>
      <point x="122" y="-578"/>
      <point x="55" y="-508"/>
      <point x="55" y="-414" type="curve" smooth="yes"/>
      <point x="55" y="-235"/>
      <point x="295" y="33"/>
      <point x="332" y="76" type="curve"/>
      <point x="453" y="76" type="line"/>
      <point x="453" y="76"/>
      <point x="203" y="-208"/>
      <point x="203" y="-364" type="curve" smooth="yes"/>
      <point x="203" y="-423"/>
      <point x="239" y="-464"/>
      <point x="339" y="-464" type="curve" smooth="yes"/>
      <point x="378" y="-464"/>
      <point x="463" y="-437"/>
      <point x="503" y="-423" type="curve"/>
    </contour>
  </outline>
</glyph>
<glyph name="hungarumlaut" format="1">
  <advance width="845"/>
  <unicode hex="02DD"/>
  <outline>
    <contour>
      <point x="96" y="328" type="line"/>
      <point x="39" y="354" type="line"/>
      <point x="349" y="860" type="line"/>
      <point x="510" y="759" type="line"/>
    </contour>
    <contour>
      <point x="408" y="328" type="line"/>
      <point x="351" y="354" type="line"/>
      <point x="661" y="860" type="line"/>
      <point x="822" y="759" type="line"/>
    </contour>
  </outline>
</glyph>
<glyph name="uni0311" format="1">
  <advance width="565"/>
  <unicode hex="0311"/>
  <outline>
    <contour>
      <point x="426" y="899" type="line"/>
      <point x="426" y="981"/>
      <point x="369" y="1048"/>
      <point x="285" y="1048" type="curve" smooth="yes"/>
      <point x="202" y="1048"/>
      <point x="140" y="980"/>
      <point x="140" y="899" type="curve"/>
      <point x="43" y="899" type="line"/>
      <point x="43" y="1039"/>
      <point x="148" y="1139"/>
      <point x="287" y="1139" type="curve" smooth="yes"/>
      <point x="424" y="1139"/>
      <point x="523" y="1035"/>
      <point x="523" y="899" type="curve"/>
    </contour>
  </outline>
</glyph>
<glyph name="endash" format="1">
  <advance width="717"/>
  <unicode hex="2013"/>
  <outline>
    <contour>
      <point x="593" y="555" type="line"/>
      <point x="123" y="555" type="line"/>
      <point x="123" y="699" type="line"/>
      <point x="593" y="699" type="line"/>
    </contour>
  </outline>
</glyph>
<glyph name="emdash" format="1">
  <advance width="1187"/>
  <unicode hex="2014"/>
  <outline>
    <contour>
      <point x="1063" y="555" type="line"/>
      <point x="123" y="555" type="line"/>
      <point x="123" y="699" type="line"/>
      <point x="1063" y="699" type="line"/>
    </contour>
  </outline>
</glyph>
<glyph name="quoteleft" format="1">
  <advance width="522"/>
  <unicode hex="2018"/>
  <outline>
    <contour>
      <point x="402" y="1326" type="line"/>
      <point x="402" y="1033" type="line"/>
      <point x="121" y="1033" type="line"/>
      <point x="121" y="1282" type="line" smooth="yes"/>
      <point x="121" y="1436"/>
      <point x="204" y="1537"/>
      <point x="350" y="1579" type="curve"/>
      <point x="401" y="1485" type="line"/>
      <point x="316" y="1456"/>
      <point x="270" y="1421"/>
      <point x="271" y="1326" type="curve"/>
    </contour>
  </outline>
</glyph>
<glyph name="quoteright" format="1">
  <advance width="522"/>
  <unicode hex="2019"/>
  <outline>
    <contour>
      <point x="121" y="1286" type="line"/>
      <point x="121" y="1579" type="line"/>
      <point x="402" y="1579" type="line"/>
      <point x="402" y="1330" type="line" smooth="yes"/>
      <point x="402" y="1176"/>
      <point x="319" y="1075"/>
      <point x="173" y="1033" type="curve"/>
      <point x="122" y="1127" type="line"/>
      <point x="207" y="1156"/>
      <point x="253" y="1191"/>
      <point x="252" y="1286" type="curve"/>
    </contour>
  </outline>
</glyph>
<glyph name="quotedblleft" format="1">
  <advance width="891"/>
  <unicode hex="201C"/>
  <outline>
    <contour>
      <point x="771" y="1356" type="line"/>
      <point x="771" y="1063" type="line"/>
      <point x="490" y="1063" type="line"/>
      <point x="490" y="1312" type="line" smooth="yes"/>
      <point x="490" y="1466"/>
      <point x="573" y="1567"/>
      <point x="719" y="1609" type="curve"/>
      <point x="770" y="1515" type="line"/>
      <point x="684" y="1486"/>
      <point x="639" y="1452"/>
      <point x="640" y="1356" type="curve"/>
    </contour>
    <contour>
      <point x="402" y="1356" type="line"/>
      <point x="402" y="1063" type="line"/>
      <point x="121" y="1063" type="line"/>
      <point x="121" y="1312" type="line" smooth="yes"/>
      <point x="121" y="1466"/>
      <point x="204" y="1567"/>
      <point x="350" y="1609" type="curve"/>
      <point x="401" y="1515" type="line"/>
      <point x="315" y="1486"/>
      <point x="270" y="1452"/>
      <point x="271" y="1356" type="curve"/>
    </contour>
  </outline>
</glyph>
<glyph name="dagger" format="1">
  <advance width="1085"/>
  <unicode hex="2020"/>
  <outline>
    <contour>
      <point x="969" y="1020" type="line"/>
      <point x="641" y="1020" type="line"/>
      <point x="641" y="0" type="line"/>
      <point x="451" y="0" type="line"/>
      <point x="451" y="1020" type="line"/>
      <point x="115" y="1020" type="line"/>
      <point x="115" y="1161" type="line"/>
      <point x="450" y="1161" type="line"/>
      <point x="450" y="1468" type="line"/>
      <point x="643" y="1468" type="line"/>
      <point x="643" y="1161" type="line"/>
      <point x="969" y="1161" type="line"/>
    </contour>
  </outline>
</glyph>
<glyph name="daggerdbl" format="1">
  <advance width="1092"/>
  <unicode hex="2021"/>
  <outline>
    <contour>
      <point x="972" y="1020" type="line"/>
      <point x="644" y="1020" type="line"/>
      <point x="644" y="444" type="line"/>
      <point x="970" y="444" type="line"/>
      <point x="970" y="305" type="line"/>
      <point x="644" y="305" type="line"/>
      <point x="644" y="0" type="line"/>
      <point x="453" y="0" type="line"/>
      <point x="453" y="305" type="line"/>
      <point x="118" y="305" type="line"/>
      <point x="118" y="444" type="line"/>
      <point x="453" y="444" type="line"/>
      <point x="453" y="1020" type="line"/>
      <point x="118" y="1020" type="line"/>
      <point x="118" y="1161" type="line"/>
      <point x="453" y="1161" type="line"/>
      <point x="453" y="1468" type="line"/>
      <point x="646" y="1468" type="line"/>
      <point x="646" y="1161" type="line"/>
      <point x="972" y="1161" type="line"/>
    </contour>
  </outline>
</glyph>
<glyph name="guilsinglleft" format="1">
  <advance width="576"/>
  <unicode hex="2039"/>
  <outline>
    <contour>
      <point x="590" y="842" type="line"/>
      <point x="143" y="577" type="line"/>
      <point x="590" y="306" type="line"/>
      <point x="590" y="99" type="line"/>
      <point x="-18" y="481" type="line"/>
      <point x="-18" y="666" type="line"/>
      <point x="590" y="1049" type="line"/>
    </contour>
  </outline>
</glyph>
<glyph name="guilsinglright" format="1">
  <advance width="577"/>
  <unicode hex="203A"/>
  <outline>
    <contour>
      <point x="-12" y="842" type="line"/>
      <point x="-12" y="1049" type="line"/>
      <point x="596" y="666" type="line"/>
      <point x="596" y="481" type="line"/>
      <point x="-12" y="99" type="line"/>
      <point x="-12" y="306" type="line"/>
      <point x="434" y="577" type="line"/>
    </contour>
  </outline>
</glyph>
<glyph name="fraction" format="1">
  <advance width="1287"/>
  <unicode hex="2044"/>
  <outline>
    <contour>
      <point x="64" y="-30" type="line"/>
      <point x="1103" y="1365" type="line"/>
      <point x="1225" y="1272" type="line"/>
      <point x="184" y="-123" type="line"/>
    </contour>
  </outline>
</glyph>
<glyph name="uni2074" format="1">
  <advance width="1109"/>
  <unicode hex="2074"/>
  <outline>
    <contour>
      <point x="293" y="836" type="curve"/>
      <point x="681" y="836" type="line"/>
      <point x="681" y="1396" type="line"/>
      <point x="554" y="1208"/>
      <point x="425" y="1021"/>
    </contour>
    <contour>
      <point x="698" y="1638" type="line"/>
      <point x="826" y="1608" type="line"/>
      <point x="826" y="838" type="line"/>
      <point x="977" y="838" type="line"/>
      <point x="977" y="726" type="line"/>
      <point x="826" y="726" type="line"/>
      <point x="826" y="466" type="line"/>
      <point x="681" y="442" type="line"/>
      <point x="681" y="726" type="line"/>
      <point x="156" y="726" type="line"/>
      <point x="134" y="836" type="line"/>
    </contour>
  </outline>
</glyph>
<glyph name="uni2206" format="1">
  <advance width="1190"/>
  <unicode hex="2206"/>
  <outline>
    <contour>
      <point x="595" y="1326" type="line"/>
      <point x="1071" y="143" type="line"/>
      <point x="119" y="143" type="line"/>
    </contour>
    <contour>
      <point x="595" y="1036" type="line"/>
      <point x="305" y="253" type="line"/>
      <point x="885" y="253" type="line"/>
    </contour>
  </outline>
</glyph>
<glyph name="minus" format="1">
  <advance width="724"/>
  <unicode hex="2212"/>
  <outline>
    <contour>
      <point x="691" y="508" type="line"/>
      <point x="9" y="508" type="line"/>
      <point x="9" y="639" type="line"/>
      <point x="691" y="639" type="line"/>
    </contour>
  </outline>
</glyph>
<glyph name="integral" format="1">
  <advance width="1289"/>
  <unicode hex="222B"/>
  <outline>
    <contour>
      <point x="1006" y="1516" type="curve" smooth="yes"/>
      <point x="791" y="1516"/>
      <point x="821" y="1332"/>
      <point x="804" y="1169" type="curve" smooth="yes"/>
      <point x="678" y="-34" type="line" smooth="yes"/>
      <point x="652" y="-286"/>
      <point x="599" y="-524"/>
      <point x="295" y="-524" type="curve" smooth="yes"/>
      <point x="214" y="-524"/>
      <point x="123" y="-480"/>
      <point x="63" y="-432" type="curve"/>
      <point x="139" y="-307" type="line"/>
      <point x="177" y="-345"/>
      <point x="227" y="-381"/>
      <point x="286" y="-381" type="curve" smooth="yes"/>
      <point x="501" y="-381"/>
      <point x="471" y="-197"/>
      <point x="488" y="-34" type="curve" smooth="yes"/>
      <point x="614" y="1169" type="line" smooth="yes"/>
      <point x="640" y="1421"/>
      <point x="693" y="1659"/>
      <point x="997" y="1659" type="curve" smooth="yes"/>
      <point x="1078" y="1659"/>
      <point x="1169" y="1615"/>
      <point x="1229" y="1567" type="curve"/>
      <point x="1153" y="1442" type="line"/>
      <point x="1115" y="1480"/>
      <point x="1065" y="1516"/>
    </contour>
  </outline>
</glyph>
<glyph name="greaterequal" format="1">
  <advance width="1036"/>
  <unicode hex="2265"/>
  <outline>
    <contour>
      <point x="890" y="36" type="line"/>
      <point x="133" y="36" type="line"/>
      <point x="133" y="180" type="line"/>
      <point x="890" y="180" type="line"/>
    </contour>
    <contour>
      <point x="912" y="743" type="line"/>
      <point x="257" y="240" type="line"/>
      <point x="175" y="350" type="line"/>
      <point x="706" y="743" type="line"/>
      <point x="175" y="1156" type="line"/>
      <point x="257" y="1266" type="line"/>
    </contour>
  </outline>
</glyph>
<glyph name="lozenge" format="1">
  <advance width="1195"/>
  <unicode hex="25CA"/>
  <outline>
    <contour>
      <point x="597" y="1326" type="line"/>
      <point x="1073" y="663" type="line"/>
      <point x="597" y="0" type="line"/>
      <point x="121" y="663" type="line"/>
    </contour>
    <contour>
      <point x="597" y="1106" type="line"/>
      <point x="307" y="663" type="line"/>
      <point x="597" y="220" type="line"/>
      <point x="887" y="663" type="line"/>
    </contour>
  </outline>
</glyph>
<glyph name="ff" format="1">
  <advance width="1466"/>
  <unicode hex="FB00"/>
  <outline>
    <contour>
      <point x="1276" y="1516" type="curve" smooth="yes"/>
      <point x="1061" y="1516"/>
      <point x="1111" y="1332"/>
      <point x="1111" y="1169" type="curve"/>
      <point x="1459" y="1169" type="line"/>
      <point x="1459" y="1064" type="line"/>
      <point x="1111" y="1064" type="line"/>
      <point x="1111" y="0" type="line"/>
      <point x="921" y="0" type="line"/>
      <point x="921" y="1064" type="line"/>
      <point x="418" y="1064" type="line"/>
      <point x="418" y="0" type="line"/>
      <point x="228" y="0" type="line"/>
      <point x="228" y="1064" type="line"/>
      <point x="33" y="1064" type="line"/>
      <point x="33" y="1169" type="line"/>
      <point x="228" y="1169" type="line"/>
      <point x="228" y="1421"/>
      <point x="255" y="1659"/>
      <point x="559" y="1659" type="curve" smooth="yes"/>
      <point x="640" y="1659"/>
      <point x="736" y="1615"/>
      <point x="801" y="1567" type="curve"/>
      <point x="738" y="1442" type="line"/>
      <point x="696" y="1480"/>
      <point x="642" y="1516"/>
      <point x="583" y="1516" type="curve" smooth="yes"/>
      <point x="368" y="1516"/>
      <point x="418" y="1332"/>
      <point x="418" y="1169" type="curve"/>
      <point x="921" y="1169" type="line"/>
      <point x="921" y="1421"/>
      <point x="948" y="1659"/>
      <point x="1252" y="1659" type="curve" smooth="yes"/>
      <point x="1333" y="1659"/>
      <point x="1429" y="1615"/>
      <point x="1494" y="1567" type="curve"/>
      <point x="1431" y="1442" type="line"/>
      <point x="1389" y="1480"/>
      <point x="1335" y="1516"/>
    </contour>
  </outline>
</glyph>
<glyph name="uniFB01" format="1">
  <advance width="1251"/>
  <unicode hex="FB01"/>
  <outline>
    <contour>
      <point x="1099" y="0" type="line"/>
      <point x="917" y="0" type="line"/>
      <point x="917" y="1064" type="line"/>
      <point x="418" y="1064" type="line"/>
      <point x="418" y="0" type="line"/>
      <point x="228" y="0" type="line"/>
      <point x="228" y="1064" type="line"/>
      <point x="33" y="1064" type="line"/>
      <point x="33" y="1169" type="line"/>
      <point x="228" y="1169" type="line"/>
      <point x="228" y="1421"/>
      <point x="255" y="1659"/>
      <point x="559" y="1659" type="curve" smooth="yes"/>
      <point x="640" y="1659"/>
      <point x="736" y="1615"/>
      <point x="801" y="1567" type="curve"/>
      <point x="738" y="1442" type="line"/>
      <point x="696" y="1480"/>
      <point x="642" y="1516"/>
      <point x="583" y="1516" type="curve" smooth="yes"/>
      <point x="368" y="1516"/>
      <point x="418" y="1332"/>
      <point x="418" y="1169" type="curve"/>
      <point x="1099" y="1169" type="line"/>
    </contour>
    <contour>
      <point x="1012" y="1577" type="curve" smooth="yes"/>
      <point x="1077" y="1577"/>
      <point x="1120" y="1524"/>
      <point x="1120" y="1462" type="curve" smooth="yes"/>
      <point x="1120" y="1400"/>
      <point x="1077" y="1347"/>
      <point x="1012" y="1347" type="curve" smooth="yes"/>
      <point x="948" y="1347"/>
      <point x="900" y="1399"/>
      <point x="900" y="1462" type="curve" smooth="yes"/>
      <point x="900" y="1524"/>
      <point x="949" y="1577"/>
    </contour>
  </outline>
</glyph>
